/* XPM */
static char *_da6a8abf4e04803dc38be432c91f3b6epjdBS8geUril69u[] = {
/* columns rows colors chars-per-pixel */
"16 16 3 1 ",
"  c gray10",
". c #535353",
"X c #ffa1d8",
/* pixels */
"                ",
" ............XX ",
" ............XX ",
" .............. ",
" .....XXX...... ",
" .....XXX...... ",
" .....XXX...... ",
" .....XXX...... ",
" .....XXX...... ",
" .....XXX...... ",
" ...XXXXXXX.... ",
" ...XXX.XXX.... ",
" ...XXX.XXX.... ",
" .............. ",
" .............. ",
"                "
};
