/* XPM */
static char *d828240bb6b942f9dafa46b77b4c91afx86b3n69GPDvvVMR[] = {
/* columns rows colors chars-per-pixel */
"64 64 102 2 ",
"   c #040404",
".  c #080807",
"X  c #070609",
"o  c #070808",
"O  c #0B0B0A",
"+  c #100F0D",
"@  c #0F110F",
"#  c #11100F",
"$  c #151514",
"%  c #181715",
"&  c #171817",
"*  c #191916",
"=  c #171818",
"-  c #1B1C1B",
";  c #201F1D",
":  c #1F201E",
">  c #23211E",
",  c #28241F",
"<  c #1F1F20",
"1  c #1F2020",
"2  c #212121",
"3  c #252321",
"4  c #272420",
"5  c #242423",
"6  c #262522",
"7  c #222425",
"8  c #272727",
"9  c #282623",
"0  c #282723",
"q  c #292723",
"w  c #292624",
"e  c #2A2726",
"r  c #272827",
"t  c #2A2825",
"y  c #2C2B26",
"u  c #2D2B27",
"i  c #2C2C27",
"p  c #262728",
"a  c #282729",
"s  c #272829",
"d  c #2A2A2A",
"f  c #2B2C2B",
"g  c #2D2C2A",
"h  c #2D2E2B",
"j  c #2B2D2E",
"k  c #2D2E2D",
"l  c #312C26",
"z  c #302D27",
"x  c #312E2B",
"c  c #312F2B",
"v  c #302F2F",
"b  c #2F302E",
"n  c #34312D",
"m  c #39342E",
"M  c #2E2F30",
"N  c #2E3030",
"B  c #333333",
"V  c #333433",
"C  c #353433",
"Z  c #333535",
"A  c #343636",
"S  c #353737",
"D  c #3A3632",
"F  c #353837",
"G  c #383835",
"H  c #3C3935",
"J  c #353738",
"K  c #363738",
"L  c #363839",
"P  c #373C3C",
"I  c #393939",
"U  c #3C3C3A",
"Y  c #383C3D",
"T  c #393D3E",
"R  c #413C36",
"E  c #423E3A",
"W  c #483F3A",
"Q  c #3F403D",
"!  c #434037",
"~  c #44423D",
"^  c #49443D",
"/  c #4C483F",
"(  c #3E3F40",
")  c #413F40",
"_  c #3E4141",
"`  c #454442",
"'  c #494642",
"]  c #474946",
"[  c #4B4A44",
"{  c #454648",
"}  c #494749",
"|  c #474949",
" . c #4D4C4A",
".. c #524C45",
"X. c #524E49",
"o. c #555046",
"O. c #54524B",
"+. c #58544C",
"@. c #545553",
"#. c #585551",
"$. c #595952",
"%. c #5B5C59",
/* pixels */
"2 8 Y I G k - o o o o o o o o O O O O O O o o O o o o O O O o O O O o o o O o O o o O O O O O O o O O O o o o   o - F L L j 7 = ",
"2 d L Y I k = o o o O O O O O + $ # O # $ # O O O O $ + + O O O O + O O O + # # + + + # # $ $ # + # $ + @ O o o o - J S L k 2 $ ",
"2 r Y P L k = o o O O o O O O O O O O O O O O O O O O O O O O O O O O O O O O O O O O O O O O O O O O O O # O . o - V Z L k 2 $ ",
"2 d Y Y F f = o o O O o                             o o                                     o           o $ # o o - S S S k 2 = ",
"2 j Y Y C k - o O $ $ $ = = = = - * - = - - - - - - - - - - - - - - - - - - ; ; ; - - - > 2 > : > - - - $ % # O o - V J S k 2 = ",
"- d Y P J N - o O $ = $ - : 2 $ = O 6 6 8 6 3 6 6 6 d 8 6 3 ; $ $ - 6 > 0 6 0 0 0 0 w 8 8 8 # * = 6 6 6 * * $ O o - B J S g 2 $ ",
"2 s Y P L N - o $ = ; * 8 6 r 2 $ - y d k k g g k d v g y y 0 $ $ > w g g g g c z c k y c g - $ > y g g - * % $ o - B S L k 8 = ",
"2 s L Y Y Z - o $ > 6 - f d k y y k n B b b g n n g g 0 y c g w 6 y n n V n C n n C n g n v y y n C n n > > * $ o - Z I Y N 8 - ",
"2 s S Y ( V - o $ 6 y > b B S n n r d d d N g g g c y 0 0 y y w y g g g g g g c c g c y g g y C G H D G 6 0 ; $ o - J F I N 8 = ",
"2 s L Y _ Z - o $ y g 6 C C G m G S U U I Y ~ ~ Q ~ H D D H H E ! H H H E H E E R E R H ~ ~ U U ~ D H G y t > $ o < J I Y S s $ ",
"2 s Y Y _ Z - o * g n 0 G G G G G G E I _ Y ~ ' ~ ! R H R E E E ^ ~ ~ E E R ^ ~ ^ E R R ~ ' E D R R ! U d w 3 % o 1 Y I Y N s % ",
"2 d Y Y Y V - o * n C y J I H H ! G Y Y ` ~ ^  .^ ' ^ ^ ~ E E ~ ^ ' ~ ' E ~ [ ^ ' ~ E ~ ' [ ~ D ~ ' ' R y y , $ o < S L L N 2 = ",
"2 s I Y J k = o - n G g Y Y H ! ~ Y ` { ] ' [  .^ ~ ^ ' [ ' U ' ~ ~ ~ [ ^ ~ [ [ '  .~ ~ ^ ' E R ' ' ^ ~ y n 0 $ o - C L L k 8 = ",
"7 s F J S j = o - n C k ~ U U D H H E ` ~ ~ E ~ ^ ~ E ^ '  .] ' ' [ [  .[ [ [ ' ^  .' ~ / ^ ~ E [ ^ ^ ~ g n y * o 1 S I L k 8 = ",
"2 8 L F S k = o - g C 8 G ^ E H U G ~ ` R R ~ ' ~ ! ` ] ' [ ' ' [ ' ' [ [  .^ ^ ^ ' [ ~ [ [ ' ` [ ' ' ~ c n t * o - S Y L k 8 = ",
"7 s I I S g = o = k B 6 C G E E H C E E E E ~ ~ E ~ ' ~ ' ' ~ ' [ ' [ ' ^ [ ^ ^ ^ ' ' ^ [ ' ` E ' ' ' ~ g m t * o - S L S k 8 = ",
"1 8 C C S d = o = k v 8 D H U ~ ` v c n C n n D D G D C C D H D D C G D D D n D D D H D H m D ! ' [ ^ ^ z D y * o - S F S f 7 = ",
"; y S S S j = o * g v 8 I E ~ ` ) w B C D D S D C n D H H U U D U U U G H H D H H H E H H H c ! ' [ ^ ^ c m y * o - Z S S f 7 $ ",
"> 8 C S F k = o = g c 3 G E ~ E Y H E W ` ` ` ` ~ E ~ '  . .[ [  . . . . .X.X.X.X.O.O. .X.O. .[  .[ ' ^ c H c = o - S S S j 2 $ ",
"- 8 S F S k = o * g v 6 D H ! E U D U ~ ~ ~ E E ~ E ` ' ' ` ` ~ ` ' ' ' ' ` W ~ [ [ ' `  .E '  .' [ [ ^ y C c * o - Z S S k 2 $ ",
"; r S F L k = o * g n 8 D E E H H H ~ E E ! ~ ~ E E ) ' ~ ` ^ ~ ' ' ' ' E ' ~ ~ [ [ [ ~ ^ ^ ' ' ' ' ' ~ y n g * o - Z L S k 6 = ",
"2 8 S L L k = o * g C g E ' E ~ R ~ ' ` ~ ~ ~ ^ ^ ~ ' [ ' ' ' ' [ '  .[ ~ [ ' ' [  .' ^ [ / [  .' [ [ / n n y * o - S F S k 7 $ ",
"2 8 S S S j = o * d C G E E G Y U U U ` ! ~ ~ [ ' ~ [ [ ' ~ `  .]  .[ [ ^ ' ~ ~ ` ^ ~ ^ ~ ^ ~ ^ ^ ' ^ [ ~ C d % o - S F G k 8 = ",
"2 8 V L I k = o * g C g 8 8 3 8 8 8 6 6 w 8 8 f d f y y y 8 y g k n g d d y 0 y y f y y y y 0 y y y y y y n y % o - C D I n 8 = ",
"2 8 S U U k = o = b C 6 y g w d g y g g k g g y y c y y g c n C C C B C v g c n c g n n v n n n n n n y 6 n y % o - C G I b 8 = ",
"2 8 Z U I B - o - n C w G H G U U U H U E ! E R ! ~ E R R E R ' [ [ ' ' ~ E ~ ! E ~ ' ^ ` ' [ ^ '  .~ E y n y % o - B I U B r & ",
"2 8 L I G k = o * k n w D Y D I H H H R E E ~ E E E R R ~ ~ ~ ^ [ ' ' ] ' ~ ~ ' ~ ~ ' [ ' ] [ [ ^ ^ E ! y v d * o - I I U B r = ",
"2 8 S I S k = o = g v 6 S D H H D H G H E Y E ~ ~ E ~ ~ ' E ~ ' [ ` ] ' ~ ' ^ ~ [ [ | ~ ~ ' ' ' ^ ~ E ~ g n y * o 2 S Y U n 8 = ",
"- 8 S L Z k - O = g n 6 D H D H H H U U E H H H E E E E ` E ~ '  .` ` ` Y ~ ~ ~ ' ] ` E ) ` ' ` ' ~ ` ~ g n g * o - S I S d 7 = ",
"2 y S S S k = o = k C 0 H U E U E D H H R E R R R ~ ` ` ` E E ` ] ` ` E ` ~ ~ ' [ ] ` ~ E ` ` E ] ~ } ` g n d % o - V S S k 8 $ ",
"2 8 S D S N = o = c C w H H U H H H D D H U E H R E ' ' ~ ~ ~ ' ] ] ' E E ` ) ` ' ` ` ~ ] ' ` ~ E [ ' ~ g D g * o - S I Z d 2 & ",
"7 d I S J k = O * y v 3 C G D c D H H H R H H R R E ~ ^ E E U ] ' ' ^ ~ ~ ~ ' [ ' ' ' ~ ~ E E ~ R ' ' ! y G g * o - I I S d 2 & ",
"2 r S S I k = O % 0 n 3 C H H H D D H R R R H E E E R R E ~ R ` ] ' E ~ ~ ^ ' ' [ [ ] [ ] ~ ` ` R ~ ' E y n y * o - F F S d 2 * ",
"2 s Z S S g = o % t z > c C D H D D H E R E ~ E ! ~ E ~ ~ E R ~ ' ` ~ ~ ~ ' ' ' ' ] ] ] { ' Y E E E ~ U g n w $ o - S L I k 2 $ ",
"2 8 B B S j = o = y g 2 C G H H D D H E R ~ ~ ~ R ~ ! ! ^ ! R ! ~ ~ ~ ~ E ~ ' ` ' ] ` ~ ` ~ E H U U E U g n d $ . - V L Y b 2 $ ",
"2 8 S S S k = o * w g 3 C U U U U D D R R ~ ^ ~ R ~ R ~ ~ E E ~ ' ! ` E U Y ~ E ~ [ ~ ' ~ Y E ' U E E H d g w $ o - B F U b 2 = ",
"; r S C L V 1 O % 3 g 8 D H D D H D H E ! ^ E R E E E ! ~ E R E ^ ~ ] ~ H E R H E ' [ ' ` Y ` ` ` E Y U d k w $ o - V I Y N 7 = ",
"- 8 Z S Z b - o % y V v ~ ^ ~ U ' E ~ ' ^ [ [ ^ ' '  . .^ / ^ [ '  . .[ ` ' ' ~ ~  .O. . .}  .} } ' ' ' S n w $ o - S U P N 8 $ ",
"2 2 Z Z S k = o % 6 B G H H U D R H H R R ! ~ E E R E E ! E R R E E ! ! E ` ` E E ` E W ` ` ~ ' ~ E E U U n y $ o - S L Y b 8 $ ",
"2 6 B S F M = o $ w k 6 2 2 2 > 6 , > , 6 6 6 6 6 6 6 6 8 6 > 6 6 6 0 6 6 y 8 8 6 2 3 6 r 8 8 8 8 8 6 2 w v 8 $ o - V S G B 8 = ",
"2 6 B S J k = o % g B 2 6 w y d d 0 6 y y g g g g g y g v g g y y g k y g g y g d g g g k k n k k g g y 6 n w $ o - B I I B 8 = ",
"- 2 B I I k - O * y c 6 C D I S C C D G D U U U U ~ U ~ ~ U Y H R U H ~ R D H ~ I D R ~ ~ ` ~ ~ Y ~ ' H y C y $ o - n U Q B 6 $ ",
"2 2 S I I k = o % w k 3 D D S S H D D U U U Y U Y ~ E ~ ' ~ E R R U E ~ ~ ! E E R U U Y E ` Y ] D E ^ E y C d = o - G U Y b 8 % ",
"2 8 C I I k = o $ 8 w 2 C S I k y $ D U U U Y U H U U E ~ E H > - C E E R ~ H E E U H ~ U Y - g y ~ E E g n d = o 2 C G G k 6 = ",
"2 8 S F Z j = o $ y n 3 C C D g > 0 H U G U U I U E U ` ~ ~ U w w D R E R E R R R E R ! ! Y B y n U U H y n d $ o - S U F k 8 $ ",
"< w C S L j = o $ w n 6 D D D C 0 3 g d 8 y g g g v k B n B n 6 8 y g g g c g n z g c v n v g y m E E E w n d $ o - C G S g 6 $ ",
"2 8 S S C k = o $ 6 k 6 H H D G c 6 6 3 6 y r 3 6 8 r d d d y 0 y 0 y 3 0 g 6 0 0 0 6 8 8 w y n m R D H y n s $ o - S G C k 7 $ ",
"2 d I S S k * o $ 0 d 6 H D D n y y d w d g n g y g g b n k c c n c n y g n c y y y y g g d g y n E E E y v y $ o 1 I G I k 8 = ",
"2 d F F S k = O $ 6 g 6 S S C c c C C C D G H U G D U U U U H ! ~ H ~ D D E H U H H D H H I U D C ` ~ E y c 6 $ o - S S C f 2 = ",
"2 d S S S k = o $ 6 k 2 C C C v c n I D D D H H H H E E ' U E R ~ ! ! H H R D H H Y H ' ~ Y ` U H ' ` ~ y g 6 $ o 1 B C S d 2 $ ",
"2 8 Z S S g = o $ 6 g 2 n S C k 2 ; 6 3 3 6 6 6 6 6 0 w g w y 0 y 0 y 0 0 y 0 6 y d d d y y d 8 S E E ~ i c y $ o - B S S g 2 $ ",
"- 8 S S S j = o $ 8 y > n D n g w y v g n v v n c c n C C C n n H H U n n G n n C S I C n n S Z G E H E y y 6 $ o - V S S f 2 = ",
"- 8 S S S k = O $ 0 y ; n C C B n D E H Y E U U ~ ! ~ ^ ' H E ! ' [ ^ E R [ ~ ! ' ~ | ' ~ ~ Y { ` E D U y c y * o - Z F F k 7 = ",
"; 8 S L L k = o $ 6 w ; v C C C 6 , y y y y y y g g g b k y g g g g g w y n g g B B k N g g g y I U H ~ 0 g 6 % o - V S L k 2 $ ",
"2 8 C S I k = o $ 0 g - v B C n y z n n C n n n n C G G G n D n C C C n D G C C I U I S C S S B C U H ~ w g 8 $ o - Z S L k 3 $ ",
"2 8 S S Y B - O $ 8 w - k B n n ~ ^  .' X.....'  ...O.+.+.o...o.o.+.+.o.+.%.$.$.#.%.%.X.@.@.@.O.D H H ~ 0 c 6 $ o - V L Y B 8 = ",
"2 8 B I U B - O % 6 w ; v n C n n m C n C I D D I G G H D R H H H U H U U Q Y E Y Y D G I Y Y E G ~ Y ~ y g 0 $ o - B I I k 8 = ",
"; p S Y Y Z - o $ y d 2 c C n C D m G n C U G D I U U U H E E H D G U U ~ Y Q Y Y ` G I Y U Y Y U ` ` Y 8 y 6 $ o - B I Y B 8 = ",
"2 s L Y Y Z - o $ 6 g > n C n n C n D c C G D D D H E H D E H D D U ~ ~ ~ E ` U H U H U ` ( ` U E E ~ Q y y 3 $ o - Y Y Y B 8 = ",
"7 a J I U B - o $ > y > c n n c n n G m G S G C n m G D D D D D D H H R H R ~ H H H G E Y U H D H U U U 6 y > $ o < L Y L k 6 = ",
"2 8 S I L k = o $ 6 g c ^ ^ ^ W ' ' X.....X.O.O.o...' ..o.X...X.X.X.o.+.+.o.+...........X.[ /  . . .^  .n 6 ; $ o - S L S k 2 & ",
"2 s Z Y I k = o $ 6 g E ~ ^ E D D R E R E ~ [ [ ~ ~ R R R ~ R R ~ ~ ~ E R ~ ~ ! R R H U U D G G G H D G n > * + X 2 L I S N 7 $ ",
"2 s L Y G b = o $ 3 n C G G C n n c C C D D G C D C n c c n c c n n g c c n n g g y y g g y y 0 w d 6 6 > - * $ X - I I J k 8 $ ",
"2 d Y G G b = o $ ; w g g n v c c v g g n c g c g v y y y y y g y y 0 y y 8 y y 0 > 6 8 8 6 8 6 6 6 6 > ; - % $ o - I I L k 8 = "
};
