/* XPM */
static char *_da6a8abf4e04803dc38be432c91f3b6epjdBS8geUril69u[] = {
/* columns rows colors chars-per-pixel */
"16 16 3 1 ",
"  c gray10",
". c #535353",
"X c #F53F39",
/* pixels */
"                ",
" ............XX ",
" ............XX ",
" .............. ",
" .....XXXX..... ",
" .....X........ ",
" .....X........ ",
" .....XXX...... ",
" .....X........ ",
" .....X........ ",
" .....XXXX..... ",
" .............. ",
" .............. ",
" .............. ",
" .............. ",
"                "
};
