/* XPM */
static char *c23c995c33e548f28461dd2ece7601ddrjvmd3fe4D03P9Vy[] = {
/* columns rows colors chars-per-pixel */
"64 64 98 2 ",
"   c #050404",
".  c #090605",
"X  c #0D0907",
"o  c #0D0B0B",
"O  c #100A07",
"+  c #130D0B",
"@  c #180F0C",
"#  c #14100E",
"$  c #1C120D",
"%  c #110F10",
"&  c #0F1011",
"*  c #141313",
"=  c #1A1614",
"-  c #1C1817",
";  c #161718",
":  c #181718",
">  c #17181A",
",  c #1B1B1B",
"<  c #21150F",
"1  c #221611",
"2  c #251913",
"3  c #2A1C15",
"4  c #221E1C",
"5  c #291E18",
"6  c #301F17",
"7  c #2C2017",
"8  c #23211F",
"9  c #2B211C",
"0  c #302017",
"q  c #34231A",
"w  c #3A261C",
"e  c #3C281D",
"r  c #1D1E21",
"t  c #1F2022",
"y  c #242323",
"u  c #292624",
"i  c #2C2926",
"p  c #252629",
"a  c #27292C",
"s  c #2E2C29",
"d  c #2C2C2B",
"f  c #2E2C2C",
"g  c #312723",
"h  c #342925",
"j  c #3F2E25",
"k  c #302C29",
"l  c #302D29",
"z  c #332F2B",
"x  c #312F2D",
"c  c #3A2E2A",
"v  c #33302B",
"b  c #32302D",
"n  c #34312C",
"m  c #35332F",
"M  c #37332E",
"N  c #37342F",
"B  c #3C322D",
"V  c #2B2D31",
"C  c #2E3134",
"Z  c #333130",
"A  c #353331",
"S  c #333433",
"D  c #373430",
"F  c #373733",
"G  c #363635",
"H  c #383532",
"J  c #383633",
"K  c #393734",
"L  c #373837",
"P  c #393835",
"I  c #3C3A36",
"U  c #373A39",
"Y  c #393B3A",
"T  c #3D3C3A",
"R  c #393C3C",
"E  c #402B1F",
"W  c #442D21",
"Q  c #482F22",
"!  c #402F28",
"~  c #463126",
"^  c #4D3325",
"/  c #43342D",
"(  c #4E3428",
")  c #513627",
"_  c #533728",
"`  c #56392B",
"'  c #5B3C2C",
"]  c #413531",
"[  c #463A35",
"{  c #493C37",
"}  c #4E3F39",
"|  c #5D3F30",
" . c #61402F",
".. c #654331",
"X. c #694633",
"o. c #6D4936",
"O. c #704C38",
"+. c #78513C",
/* pixels */
"x x x l l l l b d x x d d d d d i d x x l l d i d d d f d i d i d d d x f b f Z x i i d Z f d i d f b d l d d i d d x l d l l d ",
"F H m m m F F P F I F A b b l x l b F m m b b m m l m F P m x m A A m F G L G Y G l b F G Z S F F H P m F H F m m m P m N m H m ",
"H H H F F v A P K F P K A m l l l l l l x l m F m l m P P N F P F A F F G G G R G Z b A Z Z b A m A F b A m m m m l m m K F m m ",
"F F F b l l F K P b K F b l b b l v l d x l l m m b l F H F H m F F G F A F G L b l F b f A b b F K b d x m b b m l m m F H v b ",
"d f i u 8 u d d f u u i u u u d i u i u i u u u i i u d d d d i u i d u i i i d i u i u i i y y i i y u u u i u i u u i i d u i ",
"u u u u y u u u u y y 8 y u u u y 8 8 y y y u y 8 y y y u y u u u 8 y y y u u u y y y y u y y y y y 8 y u u u y u y 8 u y u u y ",
"u i d i u u i u y y 8 y l x l d d d d x d d b x d l Z b b b m A m b m A b F F m m A m b b x x b x b x l l y u u i i u u u i u , ",
"i u 4 y u u y , 8 y > o o o o o o o o o o o o o o o o o # o o o o o o + + + + + o # o + % * o o o * * * , y u , , u d d , 4 i , ",
"i m u i u u y y u :     o o             * o           o ;             ; >             ; o           o ;   + 8 y y i d d u y u , ",
"i d x i u u u d * * r y y r , , r t t ; ; * y a V V V a a a V V V V C ; > p a V a V a a a V p a a y , , , , o y d d d d d i u , ",
"i i l u u y u , o       o o     X X . . , *   . . o . o * o .         > ,     .   . . * o           * , .     * u i i d d d u , ",
"i i d i u y * 4 d 8 o O * : X O $ $ $ @ > + X O X O X # y o X X X X X , , . X X X + @ y *   . . . . * ,   . 8 b u y d d i d i , ",
"d u , u , o   - x F d 2 , : @ $ w w q 3 > + $ 2 2 2 1 - r + $ $ $ 1 $ , , @ < 2 < 6 0 y ; + $ $ $ $ * , * b K d 4 . * u y , i , ",
"d y y * o > o o , d F l y > 3 0 ` _ _ W , - q Q Q Q ^ w r 2 e Q Q ( Q 4 , 3 ^ ^ w _ ` t 4 3 w e e w 5 y A Y A , O $ * + y u u , ",
"4 , * X * , @ 3 $ = i A b y w Q .... ._ , 2 Q  . .....~ t 0 ` X...X. .u , w  ...( ' X.t 4 W | ' ` _ B G K x - $ 3 0 , ; o - , - ",
"y y 4 , , p y u u - * y b F l l ] B B B y y h B B B B i , 9 h c B / B f u i m B l B / r 4 l [ ] B m T P i * > i l i , > > 4 u 4 ",
"d d u ; * ; * : : - # o 8 l F l y 4 4 , - - 4 4 4 4 4 4 r 4 5 4 4 5 4 4 4 4 4 4 4 8 4 t 4 4 9 y Z T P i o * , 4 4 - > > * y b d ",
"i d y . o > + @ $ 3 2 1 o , x H m 9 3 2 , = 1 3 3 3 2 - , $ 2 2 3 3 3 y , 2 3 3 2 3 7 y , 3 h A T A y o $ 3 3 2 < $ > , X y l d ",
"d b i . o , o @ $ 2 2 2 = o : d A F g 2 y : $ 2 2 2 3 2 y # 1 2 2 3 2 , , @ 2 2 2 3 3 t : 5 F P b , o t $ 2 3 2 $ $ > , . y d i ",
"f Z u . + r X @ < < 2 2 : * X * i A K i t * $ 2 2 2 3 2 , + $ 1 2 2 3 , > @ 2 2 2 3 3 y i K F d * @ 4 a # $ 1 < $ $ > , . y x u ",
"f A u   o , X @ < 2 2 3 - : $ $ + y b H d = $ 3 3 3 3 2 , # 1 6 3 3 3 4 > $ 3 3 3 0 7 i P A u # $ 3 5 a $ 2 2 2 $ $ , t . y x d ",
"f G u o % , o # * = 2 2 , > = 1 = + 8 b F l 2 2 5 5 5 4 , * 2 5 5 2 5 , , = 5 3 5 q x F b 8 o = 5 5 4 p * 2 2 2 - * , r o u Z d ",
"i A d C , r ; y y y p p y y t y y r o - d m m d a a a y y y y t p p a , , p a p d K H x , o t a C C y p t a p a p u a a y i Z d ",
"d Z y   o , o X O O @ @ * * + @ @ $ @ X * i m F y # @ # > + @ @ @ @ @ , > + # 8 m G x ; o + @ @ @ @ : p + @ @ + o X * *   i A d ",
"d b y   o r o + $ $ < 1 , > @ < 1 1 1 = * o y m N h 2 - r @ $ 1 1 2 1 , > $ d H x i * ; * $ 3 2 2 2 4 y # 1 2 $ $ @ > ,   u A d ",
"d x 8   o , o o @ $ < 1 , > + $ $ $ $ $ , o o 8 x m l 4 , + $ 1 1 1 1 , r l F x y o @ r * $ 2 1 1 2 4 p # $ $ $ # + ; >   y Z f ",
"f Z y   o , . X @ $ @ $ > > + $ @ $ $ $ t * O X , l m b y + $ 2 2 $ $ 4 b m l , X @ $ t * @ 1 $ 2 2 2 y + $ $ $ + X ; ;   8 f d ",
"d b y   o ,   O @ $ $ $ , > + $ $ $ $ $ , * @ @ X = d b A 8 $ 1 1 $ 8 Z b i : X @ $ = r * @ 1 $ < 1 = r + $ $ @ + o > ;   8 d i ",
"u d u r p p , r t u u a , r a a p y y y y a a a p ; * i m m i i i i m x u * > V V a y t > y p u p p y y V a y y y y > ; , u d i ",
"u i y o o * + + # * : - , r : : : = * : - : = = - = o o y x N d f G x 8 o + : , - : * r : = : = : : : : : = # + # + , > o y x u ",
"u d y   o r + @ = 2 2 3 y y $ 2 3 3 3 3 , - 1 3 3 0 3 = o , d b F Z 4 o ; 2 3 3 0 3 3 r - 2 3 3 3 3 - p = 1 1 $ $ @ , > . u b i ",
"i d 8   o , X @ < 2 2 3 y y $ 3 3 3 3 3 t : $ 3 3 0 3 5 ; : i f b f , > > $ 3 3 0 3 3 , : 1 3 3 3 3 5 t $ 1 1 $ $ @ > > . y b u ",
"i d 8   o r   + $ $ $ 2 y y $ 2 3 3 3 3 , : $ < 1 2 2 4 u l l i i b m i > $ 1 2 2 2 1 y * $ 2 1 2 2 2 > + $ $ $ $ @ , > . y x y ",
"u d 8   o ,   . X X X + > > X + @ @ + + t * X + @ + - d m b y o + y l x d * O O O + + , + X + O + + + ; . X X O O X > ; . 8 l u ",
"u l u * * r o * * # * ; > > ; * : : ; * r ; * ; * , d b l , o + + o , i b l , ; ; * ; , * # # * * * # > o ; > > ; ; p , o y d u ",
"i l u y * , & > , ; , , > > , > , , , > , ; p y u b x i > o > , r ; o > u x x i , > , > ; ; ; > , , ; , ; , y p p r t t > u l u ",
"u x y   o p     . . X X * ; . X o o X o t * + u b b i * o + + + O O X X * i Z A u + o * + O + @ @ + + y o X X . .   * ;   8 l u ",
"u d y . + p o @ $ 2 2 2 , , $ 2 3 3 3 2 r , d b x y + * , = 3 0 0 3 0 : o + u b Z i 5 > : 3 0 q q 0 2 , # 2 2 1 $ @ > > . y d u ",
"u u 8 o * y @ 3 E ( ` ` g , w ' ..o...` y x A d 4 = _ ~ r w ' X.O.o.+.h , 2 * 8 d b d , 9 ` ..X.X...j r 7 ( ' _ W q , > + 8 x y ",
"u i y X * t + 1 q W Q Q 8 , 2 E Q Q W i x b d > @ q Q h y 3 Q ^ Q Q Q y > 2 3 + , i b x 9 q E ( ) ^ 9 , 1 q q 0 2 2 > ; O y d u ",
"u d y   o r o O $ 1 < 2 4 , @ 1 1 - u A b u * X $ 1 2 - r + $ $ $ < 1 , > @ $ $ X ; u b b u = 1 2 2 = , + $ $ $ @ + : ;   8 d u ",
"y d u t V p y y y p a p > , p a u i Z Z u # * t p a a t r , p p p a a u a p y a p * o y x Z i u p V y y p y a p p p > ; , y d u ",
"u b y   o * o o O + + + ; , + , x A x y o o + + + + + * r + + + + + + * + + + + + + + o 4 d d i , + + * + + + o o X ; ; o 8 d u ",
"i f y   o t o @ $ 1 1 1 , r 8 x A f , + , : 1 2 3 3 3 2 y $ 2 2 2 3 3 , : < 2 1 2 1 3 ; o : d f x 9 2 , $ < < $ @ @ > ; X 8 d i ",
"u d 8   o , o @ $ 1 1 1 , u b b d - @ 1 a > $ 2 1 2 2 2 t # 1 2 2 2 3 , : $ 2 2 2 $ 3 , @ + * i b b y y @ < 2 2 < $ > ; . 8 d y ",
"u d y X + r + 1 3 6 q 5 i Z b u * 3 E W p , 0 w e w e 9 y 1 q E W w w 4 - 2 q q 0 3 q > = 0 < # y d x u 1 3 q q 0 2 > ; X y x u ",
"y u y O # r # 6 ^ ) h d b x y = w X.o.X.p y ( ....' ' ! p w ` X...X.o.y , E '  .' ) ` , 5 ^ ( Q = , d x i ~ ` _ W q , > + y f u ",
"d b d , , , > u h u f x f , * l [ } } [ a y m { { [ ] F V i B ] { { [ u , h B / B B B u y h c / h * - d l l c c l i 4 t > u l i ",
"i y u y ; y ; > u x b d ; o ; > > 4 y 4 y , : , > > > , , - : , , , , > ; ; - : - : , : - : > : > ; o * u d d u > : * ; f d i y ",
"i u 4 u y y * u x b u + o ; X X X @ @ # y ; X X X X X * p o X X X X X ; ; . X X X X + , * O X X X X o * o y i x y o , x y 8 u y ",
"d y y u u i i l d y o . ; > . X X o o O p ; . o o o X ; a o X X X X O ; ; . o X X X o t * X X X X X # y   X 4 d l l l u y 8 y y ",
"i i d i u u i i > o $ 1 , > @ 2 2 1 2 2 a : $ 2 2 2 2 4 p @ < 2 2 2 1 , > @ 1 1 1 1 1 y * $ 2 1 1 1 2 t @ $ o , H x u u i i d y ",
"d i i i u u i i 4 = 2 3 , > $ 3 3 3 3 3 y * $ 2 3 3 3 4 p # 1 3 3 3 2 , : $ 2 3 3 3 3 r * $ 2 2 1 2 2 y # 2 1 i x i y i i i u 8 ",
"i d u u u u i u y i 2 4 4 4 , 5 4 4 8 4 y y 4 4 8 4 4 y u , 4 4 8 4 4 4 , , 4 4 4 4 4 y , 4 4 4 4 4 4 y , 4 l u i i u u i i d 8 ",
"d y , y i u y : 4 y u y i i i i d d x f f b d d d d d d d d i i f x d i i u u i i i d u i i i u u d d d d x y 4 > u i i y , i 8 ",
"i u u y u u u y y y y 8 x x x f F A G A K F Z A A F A A A A A A A A b b b x x b b b Z Z b b b l l b A x b u y 8 y u i u y u u y ",
"u u u u y u u u y y y 8 i u u u i i i d d i i i i d i d i i d d d u y u i i u u u i i i i i u u u u i u i u u u u i u u u u u 8 ",
"i i i i i u u u u i i i i i i i i u i i i i i i i i u i i i i i i u u u u u u u u i i i i u i i u i i u i u u i i i i i i i u u ",
"d m m m b m m l l b b b m b m m m l l N H N l m m m b b m b m F P A m b l l b m b b l l b l l l l d d b A b l m m N H F m m l m ",
"A A A m F m b l m m A F F m A m m m l F H T H m m H H F F F F L P F m F v m b b F A F m F m F m m b l x m b m m H H P H F m m m ",
"b A x m m l m H N m F F F A H m m N N P P I H N v A H F F m A G P H F F F G A F U F F m G G m v b l m b b m m H N P H H m m N F ",
"d F m F m m N H H H H F P F m b m F F P P T H F m F F A A m F A G F m F m P G b G G P G Y F N b l m m m Z A l m m H H H m F m m ",
"d b F K N b l l m F K b b x d l x b H F F m b b m A F A d l l x b d x A b Z Z b b G G Z G b l l v i d l b x l l d m b b l l l x ",
"8 y u y 8 y 4 8 4 4 y y y 8 8 4 4 4 y y y 8 8 4 8 4 y y , 4 4 4 y 8 4 4 y y y y y y y y y y 4 4 8 4 4 8 y 8 8 8 8 4 y 8 4 8 8 y "
};
