/* XPM */
static char *_da6a8abf4e04803dc32se432c91f3b6epjdBS8geUril69u[] = {
/* columns rows colors chars-per-pixel */
"16 16 3 1 ",
"  c none",
"- c black",
"X c #09ff00",
/* pixels */
"                ",
"                ",
"    XXXXXXX     ",
"    X--X--X     ",
"    X--X--X     ",
"    XXXXXXX     ",
"      XXX       ",
"      XXX       ",
"      XXX       ",
"      XXX       ",
"      XXX       ",
"      XXX       ",
"    XXXXXXX     ",
"    XXX XXX     ",
"    XXX XXX     ",
"                "
};
