/* XPM */
static char *f7b2192a8b4f4c0197a38135f67f9fe7cxEcp1YAPbdNXUTY[] = {
/* columns rows colors chars-per-pixel */
"64 64 126 2 ",
"   c #0C0907",
".  c #070A0B",
"X  c #0C0C0C",
"o  c #120E0C",
"O  c #14110D",
"+  c #19130E",
"@  c #0C0E12",
"#  c #130F12",
"$  c #0D1214",
"%  c #0E151A",
"&  c #0E181C",
"*  c #141414",
"=  c #1B1512",
"-  c #1D1915",
";  c #131619",
":  c #1A1619",
">  c #141A1C",
",  c #1C1B1B",
"<  c #211B16",
"1  c #231D1A",
"2  c #1E201D",
"3  c #24211D",
"4  c #2A231D",
"5  c #2D281F",
"6  c #32291F",
"7  c #151D21",
"8  c #1B1E21",
"9  c #211E20",
"0  c #1D2223",
"q  c #1D262A",
"w  c #242423",
"e  c #2B2522",
"r  c #252825",
"t  c #2D2925",
"y  c #242629",
"u  c #292729",
"i  c #252A2B",
"p  c #2C2C2B",
"a  c #302722",
"s  c #322B25",
"d  c #3A2E26",
"f  c #342E2A",
"g  c #382F2A",
"h  c #2E302E",
"j  c #373027",
"k  c #3A3127",
"l  c #35312D",
"z  c #3B332D",
"x  c #3E382E",
"c  c #272F31",
"v  c #2B2F30",
"b  c #2D3233",
"n  c #2E3738",
"m  c #343432",
"M  c #3A3632",
"N  c #353935",
"B  c #3C3A34",
"V  c #353738",
"C  c #353A3A",
"Z  c #3C3C3A",
"A  c #40362D",
"S  c #41392E",
"D  c #403631",
"F  c #433C34",
"G  c #483E37",
"H  c #423E3A",
"J  c #493F39",
"K  c #3E403D",
"L  c #3D413E",
"P  c #3E423F",
"I  c #414037",
"U  c #494036",
"Y  c #484137",
"T  c #464139",
"R  c #474239",
"E  c #42423D",
"W  c #44423D",
"Q  c #45423E",
"!  c #42443D",
"~  c #4A4138",
"^  c #4A413C",
"/  c #4B443C",
"(  c #4B443D",
")  c #47483E",
"_  c #4B483E",
"`  c #4E483F",
"'  c #50473E",
"]  c #51483E",
"[  c #373F40",
"{  c #3A3F40",
"}  c #3A4141",
"|  c #3D4242",
" . c #3B4444",
".. c #3F4444",
"X. c #434241",
"o. c #444542",
"O. c #464743",
"+. c #404544",
"@. c #484440",
"#. c #484540",
"$. c #4B4640",
"%. c #454845",
"&. c #454846",
"*. c #4B4B42",
"=. c #4E4A41",
"-. c #484847",
";. c #4C4B44",
":. c #4C4A45",
">. c #484C47",
",. c #4F4D46",
"<. c #414A49",
"1. c #464A49",
"2. c #484C49",
"3. c #4D4C49",
"4. c #4F4E49",
"5. c #504740",
"6. c #504A40",
"7. c #534B44",
"8. c #524E49",
"9. c #565046",
"0. c #53514B",
"q. c #575248",
"w. c #58524A",
"e. c #59534A",
"r. c #5B544D",
"t. c #525453",
/* pixels */
"- - - - , 1 1 e f M B b p f s f M F B B M C C M B m b p u p B T / / I B M B Z N B F Z H | } Z C m B Z Z V b m m M z z z z s 4 - ",
"< - 3 3 1 3 s l f M W Z M l g M B F F F B M W #.W Z Z M m B #.w.r.q.6.T ~ ,.&.>.-.,.,.&.2.<.+.1.X.;.4.4.&.C l Y ~ ~ Y F D l s < ",
"- < a s 4 s l f t s G H l f f f p t M M t v m Z H C Z Z B B B ;.0.,._ F M E C +.-.&.*.=.o. .[ C C C P E B p t x F D z z z z l 1 ",
"= = 5 4 1 f l l s 3 z f e s e t w 1 g g w p h Z Z v m m p N C P ..C C z e H P o.>.N ! #.m ..V C B p m m e r w s j e 4 5 3 z z 1 ",
"= = O O e s s z M s = = t e e t 1 w = = y f m Z } V > ; b m b C | o.: = f #.o.,.0.) , , C o.B B B B , : e , 3 t e 5 o o - 4 a < ",
"= = = 1 t f M M F M l z f t e 4 e e f f m m Z { | Z p b C m m C o.;.F a l / E ,.0.4.E M 0.;.H Z N D B N l r e 5 a 3 - = , 1 1 = ",
"= + - 3 t z G G J F l t e e e e e p M M m B H X.X.Z m N Z m l B F T ~ z z -.,.q.0.o.0.0.t.4.W Z Z F Z | B m l a f e < 1 3 1 1 = ",
"+ = 4 s z D ~ D z M f e 4 e p p y p Z F B Z H P W Z C Z B B M I H ' ] M M ,.q.w.7./ =.0.t.0.;.W T F T o.I Z G A G z s f z e s 4 ",
"= - t d t S G j f M l t t p p m m m W Z H H H E o.H B F F B B ~ ~ ^ 7.~ F 9.r.w.7.~ ~ =.0.0.o.F / Y F W -.&./ G J Y z D F j s 4 ",
"= < d z 5 S G M g B B s p y p f m M #.W ^ W W W #.^ F F G D F / / ^ / ~ / w.w.w.7.~ H 6.0.0.E H / / T E o.&.T B F G j z z e 4 4 ",
"= 3 z D 5 D G m l T F s w p m g F W ,./ W W E W #.^ H B G F F ^ / 7.7./ 6.q.7.7.6.~ ^ 7.0.4.Z F ^ ^ Z Z P o.W F Y G z z z e 4 4 ",
"= - 3 e 4 G ~ l l F ^ g t p m B ^ #.7./ #.#.^ #.W W H Z H H F / / 7.7.6.7.w.w.9.6.J ~ 7.;.W B M / B m m m B B B D A j f l 3 , , ",
"+ - = < s x D f f s H F M l m M Z o.-.;.7.' / ^ X.E Z H H G G / 7.w.9.7.7.w.w.w.6./ G / -.o.H F / E Z B B D M l l z s M j = O = ",
"+ - < e e s f f f l M F M z F M m P -.;.,.^ ^ ^ E H Z Z H G G / 7.w.q.0.9.w.q.q.7./ G ^ 7.-.H H W E Z Z H F D M m F B F B 1 < < ",
"+ < 1 a s s f f f f l M l B Z H m M &.-.-.W W E Z Z H I ~ ~ ~ / 6.w.w.7.q.q.q.9.6./ ^ / ,.-.E E o.Z Z Z o.T G B B G ~ ~ F 3 < < ",
"+ < 3 a f l z M l l f l l M m B m B o.-.-.W W Z Z Z Z T ~ ~ / ] / / 7.7.,.8.8.6./ / / 7.7.;.o.X.| C P } &.T G z M ~ / 6.B 1 1 < ",
"= - 4 p l z z l z l l M M M V m p m Z X.#.#.W B B B B F T H / / ~ Y ~ / 6.9.7./ H F H 7.7.8.4.o.+...| ..&.W F s d G ^ 5.D - = - ",
"= < e l l z f j j l M z M m V C m m Z o.#./ ~ B B B B B G ~ / / ~ G G ~ #.7.=.^ F M B #.;.4.4.o.o.X.| | E ^ H l z T #.=.l = o O ",
"= 1 f l t f f f f l l j l m m m m B Z Z / / / F B m M F T / 6./ / / ~ I #.#.-./ T B W #.;.4.8.;.o.X.E X.E #.I p f T / W l = o O ",
"; , w 4 e M z l j m B M m m p b M C Z P / ] / Z B B D G / #.6.] / / / E W -.#./ W H / ;.;.4.-.#.-.o.| o.#./ I p e H ^ B j - * ; ",
"; 0 , < z G z z z B B M m m b m C Z } X.W / / E Z Z F I / #.6./ ' / / W / _ ` / W H / ;.;.-.H Z o.1...o.-.#.T p f I W B m 1 = * ",
", y u e z H M D z p l N m m M m M Z X.W #./ / I E Z Z I ^ ^ 6.' / / / / / T G T / W / #.E I Z H o.o.o.X.#.#.D l l B E H B 3 1 - ",
"1 e t a l F F D f 3 p b p m M m m Z H W W ^ ^ ^ W I B B H ^ ^ F D B I / ` F B F / W / / B B Z E 1.o.;.#.^ #.G l e M ^ H H p 1 - ",
"- 3 4 e g G G G f w s l m m m l m V Z H T ~ / I I Y D M B F F M m z B D / T C P W / W H B B B X.-.o.E W #.X.T l 3 z ~ H T l e - ",
"+ 1 4 e s D F B m e l g m h m m B C C H Z H G I Z ~ F M G G D l M D B z Y Y F B E W I B M B B E E X.Z E o.-.#.B t z ~ H F M f 3 ",
": , e d s z z f p 0 p l l m f z H | Z Z P o./ W T G D z F D z l M B D l D F B B P E P B M m m B M M Z H X.-.o.Z l F H J G D z 3 ",
"> , d k e z z f p w 3 l l h l B Z | Z Z } } W / T Y D z D z z z M B B z z D B B N Z P M m m m m z B B H #.o.-.H M ~ ~ / / z s , ",
", , 4 5 4 z s j l t p m m m l B E T o.o.&.| W T T F z l M z z z M M z j k B N B N C Z C M m m M M H H H Z C E H l G D ~ ~ B l 8 ",
"1 1 < - t d t p f p p m m N m N B F o.X...P B B B B B z z z k k M M l z A z M C B m C Z M M B Z Z X.{ Z C P Z Z l M l T G M M r ",
"1 1 4 4 4 4 4 p p i i p m N N l z B W Z C C m l M z B A z k A z M m l z B z z B B N M M m M B Z E } C C Z o.E Z M B B W G D z 3 ",
"< < 1 3 4 3 e p h h b b n N B m l C W Z C C B m z M z A d k z l m m m z l l z z z M B M m M B Z H m V V Z X.Z B B Z W / B z l e ",
"< 1 < 3 3 3 w p l l m b n V I B B Z E C } C N B m B z z A A z D M m l z f z z l M m M M m B B B B M m M C X.C B m P o.H B M z e ",
"< 4 < 4 4 3 0 p l l i h n C Z Z B T ) Z } Z m B B z z S A S x z M z z z z l z A M M B N N F H B l l l m Z X.Z Z m Z E H B B B e ",
"< 4 4 a e r i b m p 2 i v n Z } C Z o.W ..Z B F F S k z A D A z z z z z z M D z z M B B B H J B M z l M m Z H H B Z E ^ Z B M e ",
"< 4 a d e w 7 c p i , t b C [ } C Z &.o.o.I F D F D z z z z z z z z z z l z M z l M M D F G H B l l l m M Z H H C o.o.W B M m e ",
"= < < 4 4 , $ q p r 2 p i V C H H Z X.E W I F D F Y F S S z A A z z z d z z z l l l z A D D M B z z l l M B B | v C C C M m l e ",
"= < + < d 3 ; w p p u y i p m M F G P I B B B A D ~ D x z x S A z z z d g f j l z z z z z z z D z l l m M B C Z b b n n m m l e ",
"- 4 4 5 z u ; p p p e u p p l m Z G Z Z B B l z G / F S l j z z z z z f f z z z f z z z A z z z z l g m m M C V b m m m m m m w ",
"< 4 e a j t * p f p w p p p p m Z G H Z B B S z D G F D z z j z z z z s d j z z l g l z z z z M l l z M m m B n i m m m m m l w ",
"< 4 4 a f f 3 f f f e p p p e M M F F Z l B D D J G B z z z z z z z z j z d z z l l l z z z M m m l M M M M m n b m m m l m l e ",
", 1 5 e f j t f z s t t p p u l z D F Z B P F F G G D z z z s k k z z z z z z z l l g g z M m m l l m M M m m n b m m M M m l e ",
"- 1 e d f l e t f s 4 e p p y l M D B Z Z Z I I G B z z z z d j j k z z z z N m M M z f l M Z z l l M M M m m b b p m M M l l e ",
"1 1 s z s z e u j f 4 e p p , s D F Z C C Z I I G D z l z z z g z z z z z z N m m l j f g B H M z z B l l l m v i p f f f z M e ",
"1 = 3 5 a z p t f j e w p p w t z B Z m l M F T T D z z z z z z z z z z z z M m m l l f z B F D D B B j f l l b y t f p j A l t ",
"1 - = - z D f g l j 1 3 p e 1 e f M C m l x D T G F z j z z z j j z z z l M z M m f g l l B H B B N B l f d g f u f e e f z z e ",
"1 - 3 t l M m m l t - , p r : 3 p b m m l z A F H F l f j j z j d j z g g m m m l f p s z D H B M M m l l s d s y s 4 3 f l D s ",
"1 = w t m M M B z e = , y 0 * ; i m m b p j z F H F z s j z z z z z z k z f l m f p t t f F F F l l h l l f f p y w 1 1 s d z s ",
"1 = 3 f m B B M z e # = w , $ ; i b m v i t j F F B z j l z z z z z z z l l l f f f e e p m B B f f p p p t p p w t e s d d f s ",
"< = 4 f M B B F B e # * * ; $ ; y i p i i t f M D B M l z A z z z z z l l j l l l f e e f M Z M f p p p p e u w w t u t s s l a ",
"= * 3 d s l B B M p * o ; > $ $ 0 i i i i p l M M m m l x z A z z z z j f j l l f f e w t p m m t p p f f t t w 3 t u w e t s 4 ",
"= * 3 s w h m B B f 1 * ; > $ ; 0 u p i i p h m B m p m M z z M z z z s s f f f f p w e t p m m t s p p s t t w 3 t e * , 2 3 1 ",
"o O - , 2 p p l f f 1 * ; > % 8 y p p p p p m C C v p m B z B N m m l a a d z l f f w e p p i p p f p p s t s w 3 e 3 = 1 w t 1 ",
"= + O = 3 u f p f l 1 * ; > * w y i i p v b V C V v m m N z M m m b l t s f z z g l 3 w p y i i i i i r e 4 t 3 , 3 < o + 1 e < ",
"- - + 1 e p f l p f e = 8 , * 9 y i p b p b C C m p b m N l z z l f f e s f z M l p w r i u p i r w y y 3 < 1 - * - + o + , 4 1 ",
"= 1 = 4 s l z z m m p , w * # , 9 y t f p p M V p i b m m m z z B l s e s z z z f p w 0 r u p i w w w e 3 * < - = - + o = < 1 - ",
"* : = t s l z z l m s , 3 * # , w w e e p i m C p i v v m m l z j t s a d A z l b m s w i b p p w y w 3 3 - 1 1 , 4 < o = 1 1 , ",
"* = o 3 d M z z M m p , w , * : w 3 w i i c b b b v v y i p s s s 5 a s d A A l b m l w p b m p p p 0 : , = O - - 4 4 O = 1 - * ",
"- 3 = 3 s x M D B M p , 1 : * = 1 1 w u i i p b m m l p p j j l l u a 5 s A z p c m p w i i p u w y 8 ; , ; O * - 3 1 = = < = o ",
": 2 3 e 5 z D F F l p : 9 : o = 4 1 w u t i p b v m p t j z z m b i a 6 s k z B p m f , > 7 2 y 0 0 ; $ > % ; : - < 1 = - - + o ",
": 3 - < 4 z M F D g 1 : 9 * X * 1 0 8 w p y v b b m p w l z M V n i 4 5 s z z l p l l w 7 0 3 p i w ; * 7 > * - = = = = 1 < + o ",
": w = = e z D F M s : * > * X * 8 7 7 0 i q p v h b i r f z z m n i 3 < 5 j z p r r p 0 8 0 0 r w , $ $ % ; * O O o * * , - + o ",
", y 3 3 s f l D M t , * ; * o * , > % 7 7 q i y i i q y t d d p i y - + 1 s s u > > q > ; > , , , - $ $ % $ $ * X o O + - + o o ",
"; 0 w 3 e t f g f s , # ; : o * , 7 % ; % 8 9 w 8 q 0 - = - = = * ; o o O = 3 ; $ $ & % % $ ; ; * $ X $ % $ $ $ X X O + + + o o ",
"X ; = * * = - < < = * X @ * X X # X $ @ @ * @ * ; ; $ o o o O O O o o X X X X . X X X @ @ @ X X . . X X X X . . X   X o o o o X "
};
