/* XPM */
static char *d0851a440d834385e67e2ca6bc2c8ff9JzoX9iIUMdAGZpti[] = {
/* columns rows colors chars-per-pixel */
"64 64 124 2 ",
"   c #0C0907",
".  c #070909",
"X  c #0B0C0C",
"o  c #120E0C",
"O  c #180E0A",
"+  c #14120E",
"@  c #1A130E",
"#  c #0A0E12",
"$  c #120E11",
"%  c #0D1214",
"&  c #0E151B",
"*  c #0F181E",
"=  c #141314",
"-  c #1A1513",
";  c #171916",
":  c #1D1915",
">  c #131619",
",  c #1A1719",
"<  c #151A1C",
"1  c #1C1B1B",
"2  c #221B16",
"3  c #231D1A",
"4  c #1E211E",
"5  c #24211D",
"6  c #2A231D",
"7  c #2D281F",
"8  c #322A1F",
"9  c #151C21",
"0  c #1B1E21",
"q  c #221E20",
"w  c #1D2224",
"e  c #1E262A",
"r  c #242423",
"t  c #2B2522",
"y  c #272825",
"u  c #2D2A25",
"i  c #252729",
"p  c #2F2728",
"a  c #252A2B",
"s  c #2C2C2B",
"d  c #302722",
"f  c #322B25",
"g  c #332E2A",
"h  c #382F2A",
"j  c #2E302D",
"k  c #363026",
"l  c #3B3026",
"z  c #35312D",
"x  c #3B332D",
"c  c #37382F",
"v  c #3E382E",
"b  c #262E30",
"n  c #2B2F30",
"m  c #2D3233",
"M  c #343432",
"N  c #3A3632",
"B  c #353834",
"V  c #3C3A34",
"C  c #353638",
"Z  c #353A3B",
"A  c #3C3C3A",
"S  c #40362D",
"D  c #41392F",
"F  c #403631",
"G  c #433C34",
"H  c #483F37",
"J  c #423E3A",
"K  c #483F39",
"L  c #3D403D",
"P  c #404037",
"I  c #484036",
"U  c #494136",
"Y  c #454139",
"T  c #41403C",
"R  c #44433D",
"E  c #46433E",
"W  c #494238",
"Q  c #4A433E",
"!  c #4B443C",
"~  c #46483F",
"^  c #49483F",
"/  c #4E483F",
"(  c #50473E",
")  c #51493F",
"_  c #373F40",
"`  c #393F40",
"'  c #364040",
"]  c #3A4141",
"[  c #3D4242",
"{  c #3E4443",
"}  c #3E4344",
"|  c #3C4444",
" . c #434341",
".. c #414342",
"X. c #464643",
"o. c #414747",
"O. c #444744",
"+. c #484440",
"@. c #4E4641",
"#. c #424947",
"$. c #464845",
"%. c #474947",
"&. c #474C47",
"*. c #4C4B43",
"=. c #4B4B47",
"-. c #4C4A45",
";. c #4D4C47",
":. c #4D4F47",
">. c #434A49",
",. c #444A4B",
"<. c #484A4A",
"1. c #4E4F49",
"2. c #504A40",
"3. c #534C44",
"4. c #524E49",
"5. c #514F4B",
"6. c #4F504C",
"7. c #565046",
"8. c #575147",
"9. c #54524B",
"0. c #59534A",
"q. c #58524B",
"w. c #5A544D",
"e. c #515452",
/* pixels */
": 5 f l v v v x M M m Z A L V M A A ] [ L L G V B A V N N P ! Q Y V s u s s m B C C C N V V G N g f f s m B N g t 3 3 : : : : : ",
"3 f x G G U W W U c A #.1.1.;...,.o.>.<.=.;.;.1.&.$.;.W Y 2.7.w.q.E B N N B A E +.E B V V V G V N h x N J E N g x f 5 3 5 5 : : ",
"3 x x l x v G G D t s C T L Z Z Z _ ] O.*.-.$.,.{ Z T N U ^ ;.5.*.B B B V A C J A C j s V N u s g f g z K K f t h N u 6 d d 2 : ",
"3 x l 5 7 6 6 h f 5 r t M m s V C C | C +.E B <.$.L J t x V C } L C N s B C s A A M s q g h 5 r t t f t h N t f z z h 3 6 t - - ",
": d 6 : O o t t t r 1 t , 1 G V V B ..C 1 1 E 9.;.X.@.h - 1 X...Z m C M < < Z ] A C g i , - r 3 t t r t - - f N x f f t + + - - ",
": 3 5 : - : 6 t 7 t y z B B F B A J =.6.B Y 1.9.;.T E x f G -.X.A M C C m n A [ [ A M M g f t t 6 t t h h x N G F S h t 3 - - - ",
": 3 : 5 3 2 t h f x z V [ A G A A E 1.e.9.9...7.q.;.+.x x W W J V z M A Z C A ..[ J V M N M s r t t t t t x G W K G v u 5 : @ - ",
"3 d t v h f v G v G A Y E Y G Y E -.9.e.9.*.! 3.q.q.-.N V 2./ K Y N B V A B A E L A A V G V s s s s t 6 t h N x G W G l f 6 - @ ",
"6 f z G G v U H G ! X.+.E G U W G X.e.9.2.W W 3.q.w.7.G Y 3.! W W V V G J C J X...J J J V E M M M s s t f z N h l G D t f d : @ ",
"6 6 t x v l G G V Y X.X.T E ! ! K ..9.9.2.G W 3.q.q.q.Q ! ! Q W W G G G G G E +.E Y E +.E +.N M g s y u f V G g N G v 6 x f 2 @ ",
"6 6 t v v z G U G E X.T A A Q W G A 5.q.3.W Q 2.5.5.q.2.! 2.3.! W G G G V J Q Q E E E E E -.E G g M s t s G Y z M U G 7 D l 5 - ",
": : 5 x h z v G V V V M M M V ! N N E *.2.W H 2.7.q.q.2.2.3.3.( ! G K G A A E ....E +.@.! ;.@.Q N M g u z Q G x x K G 5 t 5 : - ",
"- + - z N u x x x N G V B A T ! J J X.-.! G ! 2.5.q.q.3.3.7.q.3.! K G J A A T E ! ! ( 3.*.-.O.A N N z N V G f h h G v f 2 - : = ",
"3 2 3 N G F G N N G G J A A J T J J =.-.! U ! 3.q.q.q.3.5.q.q.3.! G G K V A J T Q ! E ;.;.=.A M N G x N G V g h h h f t t 2 : - ",
"2 3 5 G W W G V G G Y ..A A A ..T J -.5.! W ! 2.3.q.q.q.5.7.q.2.( W ! W Y A L J Y Y E =.=.$.N M J A V x N g h h h h f f d 3 2 @ ",
"3 3 3 V ) ! W V x G Y #.] A C [ T X.=.5.3.! ! Q 2.2.5.5.3.3.! ( ) ! W W Y V A A A J +.=.=.o.N M B M C z g h l x N x x l d 5 3 @ ",
": @ : N 2.! G f d G W o.| [ { ..X.=.5.-.3.K G G ! 5.7.2.! W G W ! ! K Y G V V V V E +.X...A M s C C N N N x x z x x v x u 5 : - ",
"+ O - x *.E Y x z K ! ..[ A ..O.O.1.=.=.+.J N G Q *.5.@.W G G ! ! ! Y G V V B N N W ! +.X.A M M C Z M x x N x l h z N M z t : - ",
"+ o - z E ! K g s Y +.T ..T E $.$.5.<.-.@.E V Y ! -.-.+.J W ! ! ! *.@.Y G N N B V ! ( ! A J V M C M M z z g z h h h z s z h : = ",
"> - : z V W K t s J ! -.....O.<.O.=.1.=.-.Q E Y ! *.*.E E ! ! ! ) 2.@.! U G N A V ! ) ! T C A B m s M M x N M h x l v t 6 r 1 < ",
"; - 3 M V E Y g s K +.-.o.} ,.O.A J -.+.-.! E E Q ! +.E ! ! ! ( ! 2.@.! G G A A J ! / +.T [ A C M M M C N V N x v x G x 2 : w < ",
"1 3 5 V J T V g c G @.X...O.O.O.J J T T +.E E ! Y G G @.! ! ! ! ! 2.! Q Y V A T E ! ! ! E X.A C C N N C B z s M F N K x t u y 1 ",
": 3 u J J Q V t z G +.! +.-...<.T A V V ! +.Y ! V V G / ! P V G G ! Q Y V V J T E ! W E E J A N M N M m m s 5 g F G G x d t t : ",
": t z Y K Y v 6 z Y X.+.E E ..<.X.B V V Y E ! E P V U ! G V x N N G G N V G U Y E Q W Y J A C M M M M M z f r s G G G h t 6 5 : ",
"5 h V K Y Y v u V +.<.O.T A ..T T B V N N Y E T V V P U x V V x x N G G N G Y V J K J A T Z Z V M M s M z h t M V G F f t 6 3 @ ",
"5 x G G K G G z V X.=...E C B N B C C N B Y T J V V G G x G V N x v G G S G G Y E ! ..A A A [ Y c z M z z s r s g v x f f t : < ",
"1 f v ! ! W W N A O.o.! K V B x M C C M C L A B P V G v x V V x l k x D v G G ! ! ..] ` A A L L B z s s z 5 r s g l l t l f 1 1 ",
"0 c N W ! V G g J ..Z J J J J M V B M N B A Z B A N V v h x N N l l x V x x G Y Y E [ $.X.X.E Y V c M C M f t g z f l 6 6 6 3 1 ",
"r N V G W c N z J A A C A ] [ A C N N N A C M B C N v S v x N x x x x x N V V V V V L { ..E G V B M B M M s s s u d f d : 2 3 3 ",
"r x D G E V B N J T X.A C Z ] T A V N C N N N B B x x V x z M M v S x v S v x N c B V Z L E V x z M B M s a a s u 6 6 6 6 6 3 3 ",
"t z x V W E A A B A ..A C Z C T A V N M N N N N v x l z x M C M x S l l S v N x M B C Z A E A z M V B m m m m j s 5 3 6 3 3 2 2 ",
"t x N N A X.L C V A ..C N M N V V V V B N N N N x S l h x c M M F v S S l x V M B B A ] C T J B V Y Z m m m c z s r 5 6 5 2 3 2 ",
"t N B N A T A C A A ..A M x x x V G G B C B N N S v x x x x x x N V G S S x v V N M A ] A ~ Y V A A Z C s s j z s w 4 t 6 2 5 2 ",
"t N B V Q J A N J E A N M x h x V K K V B B N N v F v x l l v v x F G S S x S G G V A | E X.J C ] A Z n a 4 s m m a r t d 6 6 2 ",
"t M M V E X.X.C J A A N h x x x V K G G F N N x x x v l l x x x x S v v x x G G G G Y X.X.$.A Z ] ' Z m u , a s b 9 w t f d 6 2 ",
"t z M N C Z Z b [ B N V x x x x N N F F S v x x x x x l h l l x S x x D D G U G D G Y Q J ..A J J Z Z a u 5 r s w % 1 6 6 2 2 ; ",
"t z M M m m m m A C V N M z x v F v x x x l x x l h h g h l x v x S v v v G U G v V B V Y Y G G N M s a y u s s r > 5 f : @ 2 ; ",
"r z M C C C M m Z C N C M g N x x v v v v x x h h l l h h l x x x l z l D G ! G l z B V A J G A M z s s u y s s s > u z 7 5 6 : ",
"t M M M M M M a C N N M N N z h N v x x v x z x x l h h f l l x h l l v G G G F x S V V A J G V M s s s u r s g u = u z t t 5 : ",
"r z M z M C M m m C N N x N M z M N x v x x x x x x h z k l l l l l z v v N G W G G V c A G G V N r s s s t g z g 3 g h d 7 t 1 ",
"t z M N N N C m m M M N N M z z M M N v h z g x N N x l l l x l k f l v v G G G G G A A A G G v x y s s u t g l h u z g t 7 3 1 ",
"t z M x N M j m m M M N N M z x N A N x h x M N C B x x l l k l k f z v x v v G Y Y L A A V G F z r s s t 6 f z u t g z h t 3 2 ",
"t N N x g g s i s M z z z N x v N J V g h z z C M B x x l l l l h l l v l x G K Y J A B V V G F f 1 s s t 6 h z u t x f l f 3 3 ",
"t x S z s f u i m z g g z V N V G G V x h x z M M N x x x l x x x l x l l x G K Y G N z M V V x u r s s r t z h u u v t 7 5 - 3 ",
"t x x f t t g t g h f h x B B B V G V x z z g M M x N l x l x z z l x z z x G G Y G v z M Z N g t 3 t s r 3 h z g g v l : - ; 3 ",
"f v l h 5 6 f r u f g z z M B N V K G x g s g M B M N l h l l h l l z z g x G J G S x z M C n s 5 , r s 3 : u x M z N x u 3 - 3 ",
"u h f f 3 3 r t s g h z g g z x G G G h u u f g M z h l x x x l x l l z f x V G G v z s m C M a > > w y 1 - t x V N N M u r - 3 ",
"f h f f u t u r s s u g s s z h N N M s t t f h g z x l x v v l l l v l l v V G G h u a s m m a > % 1 r - + t x F N B M g 5 - 3 ",
"d x f f u u u 5 r t r s s s s g N A N g t t h h z z z x z v v x x v S v x N V G N h u a a s b w > % > = $ = t G G N V v h r - 2 ",
"6 f u t r u u 3 r u t g g s s s C C s t 5 r g h x z z h z x l x v v v V z M N N N s s a a a a w % # < ; o ; u N V B M f f 5 - - ",
"3 r r 3 - t u 5 t u t f s s f s C M s t r r s h h g f f f z x x c v v N M z M B B j s a a s u w & # < < % 3 g N N M j r u r - - ",
"3 f r : - 5 r r r f t f s s g s s s u s t r g h x l f f t g M C B V v B M s s Z Z C s s s s s i 0 % < > = 3 g g z z s 4 5 : @ o ",
"2 t 3 - O 2 5 1 4 t 6 t t a s s a a t s r r j z x x f d t z m M M N V B C M n C Z C M n n s a i r > < > > 3 z g s g u 5 = + + - ",
"3 6 : + o @ : = , 3 : 5 y y r r a s u a r r s g x x h f 7 f z M v x M N C m s C Z Z m s z s i y q > 1 0 - y g g z z u t : + : : ",
": 5 3 @ o @ : = , 3 - 5 y r r r i s u r w y s s N v l f d f j N x x M C C n a s C C s s g u y 0 1 $ ; r 1 s z z x x z f 5 + 3 - ",
"1 3 3 - O 2 6 : 1 3 : 5 5 r i r s s m a r f M m x x S f d d u z x z M M n n a s C M a s t r r r 1 $ = 5 1 f M z x x z f t = : - ",
"; 1 3 - @ 6 6 : : - = 1 , w s u s M m s r z C m x S x f f d 7 f f f g s i s s m m m b a i r r r , = 1 t 1 s M N N N N h 5 o - - ",
"o - 2 - - 3 5 : = + < 0 > 9 a y u s a a r s C m j v S f 7 d t z z k z s s j z M m s a s s i 3 3 - - , 3 1 s M V G V V f t - 5 : ",
"o @ : : - 2 2 : , > & < % > w w y 1 9 < 1 s M a N v x f 8 d s m M x x x u s M m s s a u s i 3 3 : o , q , p h F G G V 7 t 5 4 , ",
"o @ 2 3 ; - - - ; ; < 9 > < r i s r w 0 y g c s x x l f 7 6 s m Z N x z r a m m m n a s w 0 q 3 - X ; q , 3 g F G N v 6 3 - 5 1 ",
"o @ : : ; - o o + ; > * % % : t r w w 0 w s y y f l z 7 2 5 a m C c l g r a n j s s e a w 9 0 0 ; X $ < = - f N G F x d - - r , ",
"o O @ : @ + o X = % % & % % ; 1 1 1 < < < w < < u t u 3 @ : i a s h f u y w a i i s e 9 9 & * 1 = o > > > 1 u N G x h f 5 5 y , ",
"o O @ @ @ + X X % % % & % # % > ; > & * * & & % > 5 - o o o > = = - : - : w w w r r 0 & > * < 1 > $ , > $ 3 u h h f u 6 5 r w > ",
"  o o o o     . . X X X X . . . X X # # # X . . X o     o o o + + + o o X % > > > $ > # X # X $ X   = # X $ - 3 3 : - - - ; > X "
};
