/* XPM */
static char *_d1b1de5d7dd49c4bd1e1b2a7618e0fa660rDJVobZtWH9hw[] = {
/* columns rows colors chars-per-pixel */
"16 16 3 1 ",
"  c gray10",
". c #535353",
"X c #F53F39",
/* pixels */
"                ",
" ............XX ",
" ............XX ",
" .............. ",
" .............. ",
" .............. ",
" .....X...X.... ",
" .....XX..X.... ",
" .....X.X.X.... ",
" .....X..XX.... ",
" .....X...X.... ",
" .............. ",
" .............. ",
" .............. ",
" .............. ",
"                "
};
