/* XPM */
static char *_5365599148b468aa8214df8799d9b580e5t4LW44MnLvXSr[] = {
/* columns rows colors chars-per-pixel */
"64 64 102 2 ",
"   c #070606",
".  c #080707",
"X  c #090807",
"o  c #0C0B0A",
"O  c #110F0E",
"+  c #12100F",
"@  c #151311",
"#  c #191614",
"$  c #1C1916",
"%  c #1E1C19",
"&  c #211E1B",
"*  c #25211E",
"=  c #29231F",
"-  c #231F20",
";  c #252221",
":  c #2B2623",
">  c #2D2925",
",  c #2C2926",
"<  c #2D2A27",
"1  c #2D2728",
"2  c #2C2928",
"3  c #2F2C28",
"4  c #2F2D29",
"5  c #2F2E2C",
"6  c #322B25",
"7  c #312B29",
"8  c #302C2A",
"9  c #302F2B",
"0  c #302E2C",
"q  c #332F2C",
"w  c #382F29",
"e  c #33302B",
"r  c #32302D",
"t  c #34302C",
"y  c #36312D",
"u  c #36332F",
"i  c #37332F",
"p  c #3B332C",
"a  c #362F31",
"s  c #343130",
"d  c #353330",
"f  c #353431",
"g  c #373431",
"h  c #373634",
"j  c #3A3533",
"k  c #383632",
"l  c #383634",
"z  c #393834",
"x  c #393835",
"c  c #3A3935",
"v  c #393837",
"b  c #3C3B38",
"n  c #3B3C3B",
"m  c #40372F",
"M  c #403730",
"N  c #433B33",
"B  c #483F36",
"V  c #473F39",
"C  c #493F38",
"Z  c #3F403B",
"A  c #4A4037",
"S  c #46403A",
"D  c #4B423A",
"F  c #51463E",
"G  c #53483F",
"H  c #554B41",
"J  c #594E44",
"K  c #5C5047",
"L  c #5E524A",
"P  c #62554B",
"I  c #66594E",
"U  c #695A4F",
"Y  c #665A51",
"T  c #6B5D53",
"R  c #6E6055",
"E  c #6E6158",
"W  c #716256",
"Q  c #74655A",
"!  c #76685D",
"~  c #7A6A5E",
"^  c #756960",
"/  c #7C6D62",
"(  c #7E7165",
")  c #7E7268",
"_  c #806F65",
"`  c #837365",
"'  c #84766A",
"]  c #86786A",
"[  c #8A7B6C",
"{  c #877A71",
"}  c #8B7D71",
"|  c #90806F",
" . c #8E8173",
".. c #928372",
"X. c #968876",
"o. c #988976",
"O. c #93867A",
"+. c #97897A",
"@. c #9A8D7C",
"#. c #9A8E80",
"$. c #9F9282",
"%. c #A19686",
/* pixels */
"r 0 9 4 9 9 9 0 2 0 0 4 4 4 9 4 , 2 0 9 9 9 9 , 4 4 4 4 4 2 2 , 4 9 4 0 5 r r d 0 , , 2 d 0 4 , 4 4 r 4 9 4 4 , 2 4 0 9 4 4 9 4 ",
"k k f d i d f x f x f d i r 0 0 9 i f d i i r i i 9 i f x r 0 i f i i f h x x n h 0 i f h d f d f f x i f f k i i i x f f i f i ",
"k f k f f r f x l f x l d i 9 9 7 9 9 9 9 0 i f i 9 i x x f f x f d f f l h l n l d d d d d d d r d f r d i i f i 9 i i l f i i ",
"f l f r 9 9 f l x 0 l f r 0 r r 9 e 9 7 i 9 9 i r r 9 f f f k i f f f d d f l x i 9 f r 0 d r d f l i 9 r i r i i 9 r r h l i i ",
"2 4 , , * , 4 4 0 , , , , , , 2 : : , : , : , , , , : 2 4 4 4 , , , , : , , 2 4 , : 2 , , 2 ; ; 2 2 ; , ; , , , , : , , , 2 , , ",
"# % * % % & % & ; & % & % % % * % % % % & % & * % % % & * * * & % $ & % & & ; * & & * % ; & % & ; & % * * & ; & & % % & % % @ @ ",
"o # * & % & % % & - & % & & % * % $ % % % % & & % % & & * % & & % $ % % & ; ; - & - & & & & % & & & % & & & ; & & % % & % # o . ",
"X O @ @ @ @ @ @ @ @ @ @ @ @ @ @ @ @ @ @ @ @ @ @ @ @ @ @ @ @ @ @ @ @ @ @ @ # @ @ @ @ # @ @ @ @ @ @ @ @ @ @ @ # @ @ @ @ @ @ O X . ",
"X o O O O O O @ + O + + + + + + + O + O O O O + O O O + + + + + + + + + @ + O + + @ @ @ + O + + + O o O O O O O O + + + O o . . ",
"o + # O @ @ @ # @ @ @ @ + @ @ @ @ $ # # + @ @ # @ @ @ @ @ + + O + @ @ @ @ # @ + @ $ & % $ @ @ @ @ @ @ @ @ @ # @ @ # + @ @ O X . ",
"O # # # $ @ @ # # # @ @ @ # # # = : * & @ # # @ # $ # @ @ @ @ @ @ @ # @ # # # $ # = 7 , : # $ $ $ # # @ # % $ # # $ % $ & $ X . ",
"$ , * : , = * = * & & * = = = = B B N p & : : : * = * & * & & & * * * = * = : , : B A B B & * : = : = & * = : * * * : : p 6 + . ",
"& k i p M M p p p p p M M A C p W T U J p p p B B D N B M M p p p M M M M B A G A R / Q T p B S B B A B M N B p p M p B D D & . ",
"i D J T L H P I L L J J K Y T G [ ' ` T H I T Q W Q ~ W R ! W Q R ( Q R W ~ ` ` U  .$.@.O.I E Q Q Q R T W T Q T U T U T Q ! k X ",
"i H ~ ` Q Q ~ / / / Q ~ ~ ` ` T  ...[ ! W ` ` [ [ | } | ....[ ..[ ..[ ~ ` [ ....Q ' %.@.#.]  .[ ] { ] ` ' ] / ~ / [ ] ' Q ` A X ",
"7 A W / T Q / / Q Q ~ Q ~ / ~ T ` ` / W R ~ ` ` / ] ` [ [ ` ` / ` ` ~ T Q ~ ` [ R ( .. .} / O.} { ]  .' / ' ~ / ' } ' ( P Q p X ",
", k K T I L P L L P P L P I P G U Q U G F J I I T T T Y T I R I P P P L J T W ~ K T ~ / ` T / ~ Q ~ Q R Y T P T / Q Q T H K w X ",
"& 7 M H D F B M M D B A N B N M H F D p 6 p p N A B N k B N N M M N B B N B A D M D H J H A I F D B B B M D F A B B F H B M * X ",
"# * 6 i p p p 7 6 6 p 7 : 6 p 7 M p p 7 = 6 : 6 6 7 6 6 6 7 7 , 7 6 6 6 : : 7 6 , w i k p 7 p w w 6 , , 6 w p w 7 6 p p 6 7 # X ",
"# = : i 6 7 w 7 6 , 6 7 : 7 6 6 p p p 6 = : : 7 6 7 6 7 : 7 : : 6 7 p 7 : = 7 6 , w p p i 6 p w p 6 7 6 7 : : 7 6 6 6 6 6 7 $ X ",
"$ : : w 7 7 6 6 6 6 6 w p p p p M M M w 7 7 7 p p p p w w w 7 p p p p i p 6 p p 6 p p m p w p i p p w 6 w w 6 p 7 w i 6 p i % X ",
"# : : : : = = * * = : 6 6 6 7 6 p M m p = : = : 7 6 7 6 6 w 6 p 7 6 , 6 6 p w 6 7 B N N p 6 6 w 7 7 7 7 w 6 7 w 6 : : : w w # . ",
"@ % & % & % $ $ $ $ $ & & & & & 7 6 7 6 $ % % & & & & % & * & & & & & % & & & & & w w i 6 & = * * & * & & * * * & & & & 7 = O . ",
"o # % $ % % $ $ % $ % % $ $ $ % * ; = * % % % % % & % % % % $ % % % % % % & % % % : : : * % % % % % & & % % % % % % % % & % o . ",
"o @ % % & & & & & & & & & % % & & % % & % % % % & & % & & % % % & & % & & * & % % & & & * * ; * * * ; ; ; ; * & & & % & % $ o . ",
"o + @ $ $ % & % % % & & & & & % % % % % & % & & & & & & % % % % & & % * & % % $ $ & & & & * : * & * * * : & & & & % $ $ $ @ o . ",
"@ & $ $ $ % & & & * % * = = = & % & & % = * * * * * = * & & = 7 , * & : & & % % & * % % * = : * 7 6 6 : : = & * & % $ * , & o   ",
"$ : 7 i w , 7 w i w w p M M p 6 6 6 6 w p p w 6 p p w 6 w w i M N i p p i w 6 6 6 7 p 6 6 p p i p N p p p p 6 6 6 6 p 7 p 7 + . ",
", N H K H H H G K L I Y / / / I I P I P I R T R W R Q T T R / ] } Q R I T R T R I P P W R T Y P T ~ T I T T U J G H J K W T : X ",
"i D Q ] _ ` } / ` ' }  .O.O. .[ [ ........X...+.@.@.%.$.o.@.@.@.%.%.+...+.@.@.$.@. .[ ..O...O.[ [ } [ ` ` ` ~ W ~ Q / R ! ( k . ",
": p L K K Y E K L Y Y Q / T E Y T T W R T Y I U W ~ / / W Q W Q ` ` / ! Q Q Q T / Q T Q ! Q W T T Y L I P J J F J H J H L J 7 . ",
"$ = : p w i w w i i p p V C M p p p k p p p p p p M M M p p m B A A N p i M p p M p i p p p p i i M k p p 6 6 7 6 6 w i i i $ X ",
"@ & & * * * & ; = = * , i i i 6 w p 6 w 6 7 = = : 6 6 7 : 6 6 p p i 6 , : w : , 7 7 : = , , : : 7 6 7 : : * = * : = : = i 6 $ X ",
"@ # o @ @ @ @ @ @ @ @ # $ % $ # # # # @ @ @ # @ # @ $ # # $ $ % % # # @ @ # @ @ @ @ @ # # @ @ + @ @ @ @ @ @ @ @ # # # # 6 : # . ",
"X o O @ @ O + @ + + + + @ @ @ @ + + + + @ + @ @ + + + @ @ @ @ @ # @ + @ @ @ @ @ @ @ + @ @ + + + + @ @ @ @ @ @ @ @ @ @ @ @ + X   ",
"X o @ @ @ @ @ @ @ @ @ @ @ @ @ @ # @ @ @ @ # # @ @ # # # $ $ # # # $ # @ @ # # # # @ # @ @ @ # # # # # @ @ @ # # @ @ @ @ @ + X   ",
"@ $ @ $ # # @ @ @ @ @ @ # # @ @ # # @ # # # @ @ $ @ # $ % & & % % # # # # # $ $ $ @ # # $ $ $ & & $ # @ @ @ @ @ @ @ @ @ * * # . ",
"# & 7 w 6 w 7 : 7 w w w p i w 6 p i w w k M p i M w p m M N k p k p M p m p p i M p p p M M M B M p p w w w 6 7 , 7 6 7 p w % X ",
"6 p J Q R Q Y T T W Q W ! Q ! ~ / ' / / ' } ' ' ' '  .}  .[ ` ] } [ O. .` ` ] ( ` ' ` ` [ ' ( ] ` / ( ^ Q Q / / T T ! ~ Q T k X ",
"* p N F D A D D H L J J L H F H H J H D A D F F H J J K K T I L H J J J H H H J J J H H J H F P Y P H F D D B C M A G D K J ,   ",
"O $ $ & * & * & = , : 6 , : * : : & & & * % & & * * : * * : = * & & : * * * * * * * & & * & & : : : * & & & * & % % % & : = +   ",
"o @ $ % % % % & & & & & & & * * * & & * * % % & & & * & & & % % & & ; & & & % & % % % & & & & & & & & & & * & * & % % % % # O   ",
"O $ $ & & & & & & & % & & & & * & : 7 9 7 % & % & & & & & & & % * & % % % & % % % % : , 9 , & & & & % $ % % $ % $ % $ & : & +   ",
"$ * : 6 7 6 6 7 6 w 7 7 w w w p w M N N p 7 6 6 w p p p p p p 6 p i p w 6 w 6 7 7 : p M M p 6 p i p 6 7 7 : : : = : 7 : p 7 $   ",
"# & : 7 6 7 6 6 7 7 : : 7 w w p : i k p 7 : 7 : : 6 6 i 6 7 7 7 7 6 6 w 6 6 7 6 , * 6 p p p 7 p w , 7 6 7 7 7 p 6 6 6 : w 7 $ . ",
"& : A D D D D A A N A D A F H I A K J J D C J A A A A A F D A F F A V D B D B N M w B F H H M B F A D A D N B D H F D N F D , o ",
"9 M Q ~ / / Q W / ~ ` ' / ( ] } Q [ [ } Q Q } / ~ Q W ~ ` [ / ` ` ` [ ` ` / / / Q I Q ~ / ~ I ~ ` ~ W Q Q ~ ~ ~ W T Q T Q T B + ",
"6 N T T T T T W W ~ Q ! ~ / ( ) Q O.@.@.( Q ] ` ` / Q ~ ( Q Q T ~ Q ~ ` Q ~ Q W I J ~ ` ` ` K ~ W T I P I T R R P T T P ` W B O ",
"$ * , , 7 7 w i w w w p p p p i 6 P K K F p M i w 7 6 7 6 : , : 7 6 6 p w 7 w w 6 : F G G D 6 p p i 7 , 7 , 7 7 w p 6 7 A M & . ",
"o @ # # # @ # $ % # @ $ @ # # # # : : : & @ # # # @ @ # @ + + @ @ @ @ @ # # # @ @ @ % & * & @ # @ @ @ @ # # # @ @ # @ $ % $ o   ",
"X X o O + + + @ @ + + @ @ @ @ + O @ @ @ @ @ @ @ @ @ @ @ @ @ @ @ @ @ @ @ + + + + @ + @ + @ + + + + + @ @ + + @ @ + + + + + o X   ",
"o # ; ; * & * ; ; ; ; ; , , , : : ; ; , , , ; , , , , , , ; : : , , ; , , ; , , , : ; ; * ; : ; ; ; 2 2 , , : ; , : ; * * % @ X ",
"@ ; 9 0 0 2 9 7 7 0 i f l d k k f k f k b f d d k k l x k f f d l f i 0 k d d d d d l d 7 9 0 0 4 e f b f k i k f d i 9 i , % O ",
"@ ; 9 d 0 9 9 , 2 f a l k x b b x k k d l b f l k l f l x k k i l d d d k f i 9 f r f f 0 9 9 9 9 9 i b k l w r f 0 i i 0 , % + ",
"@ & 1 2 0 7 , : 1 0 i 9 i i i x k d x f i f 0 0 9 0 0 r d f r 9 d a 0 0 a 9 7 2 6 , 0 0 , , , , , 9 4 r e r 9 9 9 r 9 , 2 : # O ",
"O % ; , 7 9 : ; ; 1 7 : 7 2 4 4 2 , 9 r 4 , , , , 2 , , 9 4 9 , , 2 1 1 9 2 1 , 2 , 2 , : : , : ; , , , , 9 , 1 : , 1 , , * @ o ",
"O $ & ; , : ; ; ; , 1 , 1 1 2 , , , 2 9 , , , 1 , : : , 2 2 2 2 , , ; , 2 2 2 2 2 ; * , 1 ; ; ; , ; , 2 2 1 , : : : * : ; & @ o ",
", 4 r d i i i 9 9 d k i d d x l i 9 i k f i 9 i i i r f k f f l f 0 0 0 0 d i 0 i 9 i r i 9 9 e r 0 d d d r i i i i i i 0 9 : , ",
"4 f d f i f r 9 0 i r i f r f f i w 9 f x k i i i d i i i f f x x f d i 0 i d f i i r r i e w i w 9 4 r f r r i f k k k f f 9 i ",
"d f d i i i i w i i d k h i d i r i w f k b x i i k k f k f f x x k f f i i i i f i f i f i i i i 0 9 0 i i i i f k x l f i i i ",
"0 d 0 i i i i k p d f f f d k i f i i x x x k p i d f k f i d l x f f f f h f f x h f i h l i 0 i 9 i i r i i f f x k f i i p k ",
"4 f d f i i f k x l f d x f d i i f f x x Z k k i f f f d d f d l f d f f l l r l h x l x f f w 9 i r d d f 0 f i k k k i f i i ",
"2 r f l i r 0 9 i f l r r r 9 9 r r x f f d r r d d f d 4 0 0 0 r 9 0 d 0 d r r r h h d h r 9 9 r , 9 9 0 9 9 9 4 i r i 9 0 9 0 ",
"& ; , ; * * * * * * ; ; ; * & & & & ; ; ; * * & * & ; ; & & & & * * & & ; ; ; ; * ; * ; ; ; & & * & & * * * * * * & * * & * * ; "
};
