/* XPM */
static char *a5df482650b44746f0bdec04a30e8c0c3mB0ScMH0jwNhQRT[] = {
/* columns rows colors chars-per-pixel */
"64 64 47 1 ",
"  c #171515",
". c #191716",
"X c #1A1817",
"o c #1D1B1A",
"O c #211E1C",
"+ c #23201E",
"@ c #211F20",
"# c #252322",
"$ c #2A2624",
"% c #2D2926",
"& c #272628",
"* c #292728",
"= c #2D2B2B",
"- c #312A26",
"; c #312D2C",
": c #312F2C",
"> c #352F2D",
", c #362E2C",
"< c #382D2A",
"1 c #382E2C",
"2 c #32302E",
"3 c #34312E",
"4 c #3A322F",
"5 c #3C332F",
"6 c #3A342F",
"7 c #2E2E31",
"8 c #302F31",
"9 c #323130",
"0 c #343230",
"q c #343433",
"w c #3A3230",
"e c #3C3332",
"r c #3B3432",
"t c #3F3532",
"y c #3B3534",
"u c #3C3634",
"i c #3E3835",
"p c #3D3837",
"a c #363638",
"s c #383739",
"d c #39393B",
"f c #403633",
"g c #413734",
"h c #403835",
"j c #443A37",
"k c #433938",
"l c #443C3B",
/* pixels */
"===>4t>=$*=3et0=$=:utu3%===w44:$==%4wu0=%#$3uu:%%=:wtt3%%=:w54>%",
":3tttw:222rggw::=2hhjr22==thj4=:=:tgky:0:%whkq2230khlu3:::khhw2:",
"2hgtw=:29tklu:==:4ttw=:2:5gki::22tuhy::q9wuur:::2yggr2:::4fgu2::",
"ukg>===0k4ku:=::4tt>::=:rfe6::2:thhw==29w4uw===:yku>=2::tff490::",
"ww:$+$*wt>-$$$$><>-$$#%>>4-%%*=>>>:$$$%w>>:$%$#%>>%$#$=>11>%%*%1",
"%$$$#$%%%$##$$$%$$+$$$$$$$$$$$%%$$$#$$$%$$##$$$$$$#$$$%%%$#$$$%%",
"%$:*$##$$&##$$*$##$%***&##====$=:$=*$$#$$&#&&&&##$&$$**$%$==%=$$",
":>>=#..XoXXoXoXXXXXXX.....o=::-%9>::&XXXooXo.X.XXX.X.XXXoXo====$",
"=0:$$oooooOoOOooooooooOoooO:=-==::-$=OooOOOOooooooooooOoOo+9=%$#",
"==+o=:OO+OO+#+OOOOOOOOOo+#q9+#%=:*oo=2+O++O+#+++OoOoOOOO+#aq++$$",
"%O.. $9#....XX......X...#q=.XX+%=#.XX%0#XXX.X..X... X.. #q=XXX+$",
"=*O#Oo#9=+OOO+OOOOO+O++=q&ooOO#29*O&OO&0:+OOOOO+OoOOO+O*q&oo++#:",
"=&O#OOo#9=oooO#O+OOOOO*q&XOoOo#99*O#+#O&02oOOoOOOoOO+#=7#XOoOo$=",
"9#...X..X=9o....X.. X:9o. X XX$99&.XXXXXo9qOX...X...oqqo... XX$9",
"=#oO@OOOOo*9$oOo+oO$:*oXOOOo+O%:=&oO#++++o=s*O+O#OO$9=oXOOOO#O$=",
"=#XoXOooXoo#:#oooo+0&XoooXoooo&2=#Xoo+oOooo*q&oooo&q*oooOoOXoo&:",
"7#XooooooXo.o3=oo==O.XoooXoooo&==#XooooooooX+q:OO9q#XoOoOoOoOo&q",
"=#oOoO++OOO+OO=:=:o.OO+++O++Oo#==&oOO####O##O+:2::OX##$#+O###O#9",
"q&.X .......XXO=:#..X.X.X.X.XX#:=& ..XXXXXXXXX+:2#..X.oXo.oXoX&=",
"q*oOoO+OOOOOO=:##:=oOOO++O+OOo&==&oOoO++##+++:0$&0=oOO++#O#++o&=",
"q*o#OOOOOOOO%2#oo#:=ooOOOOOoOo#22$oOOOOO+#OO:0#oO#9=OO#OOO+O+O&=",
"=&..XX.XX.o:=o..X.o*:o..X.X XX$:=# ...XXXXO92oX.X.o=0oXXX.X.oX&:",
"=&OO+OOOO&9%oXOOOOOo$:$O+O+O#O#==#OO+++++=q=oo++#O+o=0%O#O#+$O&=",
"=&oooOoo*7&XooXoooooo&:&oOooOO#==#oOOOoo*q*XOOoOOoOOo$9&OOOo+O&:",
"=&Xoooo==O.XXXoXXXoooX+==ooXoo#==#ooooO==#XXoooXoXOooX#:=ooooo$9",
"=#oOO#==oXoOoOOOOooO+OOO==+oOo#==#oOO#==ooOOOO++OOO++OOO==+oOO&9",
"9$.X#7*X..... ... ..XXX.X*2#X.$::&.X#7*X......X.X.XXo.X..%:#X.*:",
"=*==:&XoO+OOOOOoOooO+OOOOX&2%=*=:***:#Xo++O+OOOO#OOO+O+OOX#9%$$$",
"=-==&o+##OOO+++OOoOO#####OO&3-::9:==&o#$#OOO+++OOOo@#+#+#Oo$0==%",
":$==*#*#$**&*$&&&##&&&&$$$%===%=>===$#*=*$*&***&*$$&$$$$#&*:=:==",
"-%%=**q2qdssds0q09qaqaq099:===%%:===*$qqiassddsssaadsssqq=:==:==",
"::=7==99:=72qq=:=:99999==9:=:=>=::77=*:2:=920qq9:q0qqqq:78:::=:%",
":%%**ooooXXooooooooooooXoo$==:%:3=:$$ooooooooooooooooooooo#===%-",
":-%=#oOOooOOoOOoOOOOOoOoOO+$:>:=2:-$#OOOOOoOoOOOOOOOOO#oOOO$:-=%",
":%$#8O.X....XX......X.X...#q*%%%:=#+8#.X...Xoo....X.X.X.X.#q$%$%",
"%#oo#=%OOOOOOOOOOOOO+++O+:q&oO$$=#XX#2-++OO+#OOOOOOO+OOO#=q&oo$$",
":&o#o#==oOOOOOooOOO+O##O7a#oOO#:2&o+o&99OOOOO+OOOoOO++#O7q#oOO#=",
"=&XoXXX*2o....X...X.XXoqqX...X#89&XX.Xo:qo....XX. X.XXoq7o. X.#=",
":#o###Oo$9&oOo#OOOOO+*q*oXOoOo#==&OOOOOo%0&oOO#+OoOO+*a=oXOoOO$=",
"7&XoO+ooo*q$ooooOooo#9&.oooooo#==&oooOoOo$q*oOoooooo#9&.ooooOo$9",
":#XoooooooO::ooXoXo99OXXoXoXoo#==&XooooooXO92ooXoXo::OXXoXoXoo$9",
"=#o##+O+#+Oo=9#O+#7=@o##+O++OO&:8&o#+#O#+OOo=9+OO#==Oo###O+O+O$9",
"=&.XXXXX..XXX%9##9*XX.X.X.o.XX&==#...XXX..X.X%:#O2*...o.X.o.oX&=",
"q*o#+#++#O##Oo#99&XoOO+O+O###O&:=&oO+#++OO##Oo#22#XX+++OOo#++O#:",
"9$oOo#+O+#++O+=:==oooO++#O+++O&29*oOoOOO+O++O+==:=ooooO++oOOOo&:",
"=&.. .XX.XXXO9:oo:9oX.X.X.X.oX&:9#.. .....X.o9=oo=:o..X......X$:",
"=#ooOoOO+O+*0=ooOo*:*O#OOO+O#O&==#oOOoooOOO$:%ooOo$=#oOoOoOo+o%:",
"%#oooOOOOO*9$oOO+oo&9*OoOOOo#o#=%#oooOOOoo*:&XOOOoo#2$ooOooo+o#=",
"$#.XXXXoO79#XXoooooX#99ooooXoX#==#XoXXXXo=7o.XoooXX.O==XoXoXoX#%",
"=#O+O+O#98oXO+O++O++O@99#O+O#O#==#O+O+O#8=oXOOO+OO++Oo*=#++OOO#=",
"=#XX.o#8*X..XXX.X.XXoXX=9#o.XX&:=&Xo.X#9*.....X.X.XXoXX*:OX.X.#=",
"=#ooo*8#XoooO+#OOoOO+OOX&q:OOo&:=&oOO*8&XXoooOOOOoOO+OOX#8=oOo&=",
":*oO*=#oOOOOOO+OOOOO###OO#2=O+=:0=O#=7#oOOOOoOOO+OOOOOOOO#=%OO==",
"=$===X......XXX.X.XXoXoXX.o=2:=$:====o.X........X.XXX.X.X.o=:==%",
"====&o#$###########&%&$$$##=0::=:8=7$o#$#O#+#+++########$++*:--=",
"-$*$$$390qa0qqq9q8qaasqq09:=*:==:*=$=%9809q00009:90q0q002::=$:$=",
"%%$$$#%%$%%%===%=%========%%=%==%%$$%$%%%%%%%%%%$$==%==%%%%$%%$$",
"%%%%%$$$$%%%%%%%%$%--%$%%%%%-%%%%$%%%%$$$%%%%%$%$$%%%$$%$$%%%%+$",
"=ugg3::=:ttuw=:::44tt2:::tttw::20uft3:=::wtt3:-::>1ww::::thhr:%:",
"uhhr2:::tfhu922:tt5r0yq3thjt2::2khjr::::ihhr223:te4>:::2ghli2:::",
"ug3=:::hjhuq920thu40qqqhtgu2:::ukhr2:2:ulkr29q2tf54:::3kjlu2::3g",
"ty::=:tjht92q9ugjr:9qijlhr02:2uuhw:2=2ieiyq0q3tfg4=:=3thhuq2::te",
">=222wtwt0y=2gett=22qhhhr202=tgu0====ruwyqq:quett%%=:ttt>2:::wet",
"#$$#%--$#+$#>>-%O+#$>1>$##$$%--%#$++%--$####>>-$+OO$->>%##$$-->-"
};
