/* XPM */
static char *d57e350c0e474eecc21e5cce2de2e92ee2yQQ8Fp7I0ji91U[] = {
/* columns rows colors chars-per-pixel */
"16 16 3 1 ",
"  c gray10",
". c #535353",
"X c #F53F39",
/* pixels */
"                ",
" ............XX ",
" ............XX ",
" .............. ",
" .............. ",
" .............. ",
" ......XXX..... ",
" .....X........ ",
" ......XX...... ",
" ........X..... ",
" .....XXX...... ",
" .............. ",
" .............. ",
" .............. ",
" .............. ",
"                "
};
