/* XPM */
static char *_da6a8abf4e04803dc38be432c91f3b6epjdBS8geUril69u[] = {
/* columns rows colors chars-per-pixel */
"16 16 4 1 ",
"  c #F53F39",
". c #1A1A1A",
"- c #535353",
"X c #F53F39",
/* pixels */
"                ",
"................",
"..------------..",
"..-..........-..",
"..-..........-..",
"..-..........-..",
"..-..........-..",
"..-..........-..",
"..-..........-..",
"..-..........-..",
"..-..........-..",
"..-..........-..",
"..-..........-..",
"..------------..",
"................",
"                "
};
