/* XPM */
static char *_0a4d4abeeb44ea8ab9f87921b64a212xI0Ep9AEfBbQC9Yf[] = {
/* columns rows colors chars-per-pixel */
"64 64 49 1 ",
"  c #1F1D1C",
". c #211F1D",
"X c #22211F",
"o c #211F20",
"O c #252322",
"+ c #2A2624",
"@ c #2B2926",
"# c #2C2729",
"$ c #2E2B29",
"% c #2E2E2C",
"& c #302A27",
"* c #302B29",
"= c #302C29",
"- c #312F2B",
"; c #322E2B",
": c #312C2C",
"> c #322F2D",
", c #342F2C",
"< c #382F2F",
"1 c #34302B",
"2 c #32302D",
"3 c #35332F",
"4 c #36342F",
"5 c #38332F",
"6 c #352F31",
"7 c #382F31",
"8 c #2F3130",
"9 c #323130",
"0 c #373330",
"q c #333431",
"w c #363430",
"e c #363533",
"r c #343535",
"t c #363634",
"y c #393431",
"u c #393532",
"i c #393533",
"p c #383735",
"a c #373835",
"s c #393833",
"d c #383835",
"f c #3B3834",
"g c #3A3A36",
"h c #3F3739",
"j c #373A38",
"k c #3D3A39",
"l c #393C3B",
"z c #413C3C",
"x c #41403A",
/* pixels */
">>-----2$>>$$->$@$>-$$$@$$$$$@$$$$$>%9%8%@@$9%$@$%2$$$-@$$>-$*-$",
"uu0343ududw922->-3w333233-3ws3>3033wtaakt-2ww9q0uwd3wwu333s4u3u3",
"uuuwu>0dpwat03--$-----2w3-3ddwwdw0wwtttlt399992930w203333-30uw33",
"wtu2--wpd>tw>>22-1-*2--333-wuuu3wwww0qtt2$w2%922wt2->3233,33uu23",
"$$@+X+$$%++@+++$++@+@O+@@@O$$$$@+@@+@+$$@+$+@@O+$$O@O+@+@++@@$+@",
".X+X X..OO.....O.   ..XX.  OOOOO. ..XOOO.oO.OX. OX.OOXO........X",
"O$>$O+OO+$++$+O@O.XXXO++OO+@$+++O.OO#$$$+##+#+++#+O@O+$#@+O++O+O",
"O$>>+@+$#$$$##++OOO++O@$@+@++@@@@O++$$$#+#%$$@+@+#+@#+$##@@$$O+@",
"$w0>$$$2-2$0>>6*@$*@@@@>$---$2-$$O@$0t6--*922$->*$#33>-**2q--@@+",
"2dk332>9,33w2w3--332---233333-$-2@-300q20-wwqttu3@>0t-0wuud3033-",
"3wkw000,uw202w>332,323-003303,311--3p0wp0-dw3wpkt->0u,33sudwww33",
"4dkdddu,0u33>33,0w0>3w303uu3,1--3333awwuu3000-0uw,>>>3>35us3wp2-",
"wtkp>>3-332--3-0up3331133w3u3u3301333wwpuuuww3>033w30u3233-0qwu3",
"t233*-$>>>---,-,3u3>>33>300333u33u333wdpuupudu>w300>0uuw3w-3twdw",
"0-3>-->-2>>----,2u333-1-333133u333u33wtuu3uukpw00003ppuwww3ta0u2",
"2>ww$*,3>&*---$--3,3w3333333w3333333333,-,0upu330wwwwu5w3uw0230-",
"3-,3---2-&->--3333->333-33>3>333-13535uu330uddw30puudupdu3www-uu",
"-*03---1-3----3333>333--2w3333->-3u430uu333uuuu3uuupppddw>wdd33u",
"uwu3>$2>>3>>2320330wu3132>>3-,>3333333w35u33uu5333uuuuwupwudp33w",
"wpwww23,23->323302wdu532303>3133-3uu03w33333udu5uuusdw30p0wduw32",
"dddwu03,0233>-,2>0wdww3333313353333u33333>35uu5uuuuuuu4333wpuuuw",
"pwu0003>3-->2>->-33w03-3333333u355uuu3333u3u3uuuuduw0uuu3w0wwwpu",
"pdu03>----32---->33u3332wuw323--33uw33353uuu5u0ududduuuu33uuupdd",
"www2w3--3-23-->-->203>333u33333033w3uuw31usu55u033sduuu32333uudd",
"sw33u3333--->--2323w3-333u332-333w33uuu3-4uuu3d4dddddu5133100udd",
"u333->3-@-3>----132ww233w3333--30uw3335--usu40du33>us31133-3w4pd",
"p003--33--23------>ww233uuuw33-3230u3533-w30320w333ud5131333333p",
"w354--*-31w0u2331--3w333uwuw3-13w303334w5uw30230303uudu1330uw-2w",
"3333>3>>w233uw033-3w0w3wwpww3333w2>3530pdus333u3u34udu31103w2320",
"3--3,33-30wwdw323-23w023>wpww33>u0-3333uduw2u033wuuuwd5--w9903w>",
"3-33www33ttwdw-21--20332-w3u33,>tpuwu33033d32w-3updsuu3,w2wp>223",
"33--03taww0wta22w223323w333w3u0uwpdwww----03wu333wsuu33333wu2>3-",
"3--3wttat-->dw3>03w3w>--333033300uu3ww33*333333>->uw0w32wwwu2-3-",
"3--300wa>$322993u3w30>-11300w33w3u33,33333-3>-**-30333>3--wup3-3",
"5-->2$>t2232>>2332320333-->300333uu323>3w33w33&----$-$-2>-3dp434",
"1-433$->$-3-$2-2ww3-33w,-333pu333uw>-332w203-----3--3--w222wuw3-",
"133-322>-$>$%>$-ww-32ww3>3403323wdw-@200u>-2>--333w24>33ww24ddu3",
"33400uw-322-02>2ww3wuwp33--32--33wu-@w33w------35133p0ddwwwwaau>",
"3@33wp01->>230>20wwdw3u32-302-3233u2$>3-223>w33u>-3>-2ptwwwsdww3",
"3-23022$-32>>223t93u323-223u023023w3-2->3-3w0-33$---3wttadw33www",
"3*3322>-,->>22>3t03ud2333wdu02->0wu2,23w3222w3w3>23233wdw3303u03",
"-@30>$--3-0230wwu>3dd>0uw0pw3w3-3uk-3>30-->33331-3333u0aa333u3->",
"2--02->2>-0033wup,wpw-30ddaw033333w322w23333w0233--30w3w0333w-33",
"w3330>%>3->30-30p00p2>32udu0wu333wu3www-30033331343-3u3w3u33---3",
"0130>2>>,3>-220000pww03wuu3wt0wuawu3----3w0,-3334p323513133u353-",
">132>2233,3>w00pwpp0wuwwwd30twdtd-5-@-@2->-*-3,33332235--1,3-353",
">-5--223,,30p3300u0wdwwpww0tt3uww-3-*---22-**3,33uu33331333333u3",
"333-@,&*,,30u2,3p0uwww3uuuw033u-0-33*,030-->>,*-3330u133uuuu0003",
"-3-,-330<-05zz000u30wupdduuuu3pu3-3,*,3w3-,7,,05u333wu3-0p00,533",
"3333-0u005udzzdd0u30pdzzd0wdd3pu-3p3,03u3u005<00<,3uup-30z0<50,,",
"3333,,033uuuhhu,0u30dkpzkudddwpu30u03000wuud0000u0ddkd3u00055033",
"-0k,>-,,0uuuhdduuu4zkp0pkkdkdwuupp0duupppu0000p340zkkduudu5-05u0",
"-00,7--,,70ududddsuskp0upddkdsuupp00puu0p0dp-333@3pzdd3pp031uuu3",
"-,,0,--@*07uudddduu3pkupup0pduw3u000003-3,00>----13kup-,0,33035-",
"-&*$,*@##,,-532su0d0303>-,>20q2-07>,7>*$*+>>$@@@@$-223-----&--&@",
"++#+**+OO#*+*$$@$#-2$@@#@$@@$$$@+$+#>###$##@++++O++@@-@#++####++",
"++XO++OOO+#+##$@@@$-@++#+++@$$$$@+O+$#$$@OX+#OOO+O#$$#@+++X++XOO",
",030333--0u300dp3-3ww3-30320u0up0>>>>93>3-333--2>>200333313322&2",
"$www333->32309ww3--usu3333323wwddw0322ww322231-3--$202235uuuu4-3",
"9003432-130uw30333-uuks33upuu0wadu0w2223w3w3u34332->3333uudpw333",
">0>33,3u43uuw0u3044dddu5-0uuw30tdwww0t0wjww3tt3-3-33233uuduu335u",
"$w0w33wusup0pw323wwddxuu3ww003w0pw3w3at2twatkw31-33320-33uuu3w33",
"$2wt42>-30w29>$->2sww03300q0$>>>2$>9>9222tt9t2--2@*$%>--$332->->",
".OOOXX.XX.OOOXX...OOOXX.X.OO  ..XX.XOOOOXOOOOO .X..XOXXXX.XX.XXO"
};
