/* XPM */
static char *a4c8b252fe4646b1866f199587c2415axjeban50Xais4Q6v[] = {
/* columns rows colors chars-per-pixel */
"16 16 3 1 ",
"  c gray10",
". c #535353",
"X c #F53F39",
/* pixels */
"                ",
" ............XX ",
" ............XX ",
" .............. ",
" .............. ",
" .............. ",
" .....X...X.... ",
" .....X...X.... ",
" .....X.X.X.... ",
" .....X.X.X.... ",
" .....XX.XX.... ",
" .............. ",
" .............. ",
" .............. ",
" .............. ",
"                "
};
